<svg width="43" height="42" viewBox="0 0 43 42" fill="none" xmlns="http://www.w3.org/2000/svg">
<path d="M21.0312 1.3125C10.1585 1.3125 1.34375 10.1272 1.34375 21C1.34375 31.8727 10.1585 40.6875 21.0312 40.6875C31.904 40.6875 40.7188 31.8727 40.7188 21C40.7188 10.1272 31.904 1.3125 21.0312 1.3125Z" fill="#002A48"/>
<g clip-path="url(#clip0_12_1275)">
<path d="M20.5 27.7917V19.4583M17.375 26.75V19.4583C17.375 18.4167 18 16.3333 20.5 16.3333C23 16.3333 23.625 18.4167 23.625 19.4583V25.7083M14.25 22.5833V19.4583C14.25 17.375 15.5 13.2083 20.5 13.2083C25.5 13.2083 26.75 17.375 26.75 19.4583M26.75 23.625V22.5833M15.2917 11.125H13.2083C12.6558 11.125 12.1259 11.3445 11.7352 11.7352C11.3445 12.1259 11.125 12.6558 11.125 13.2083V15.2917M11.125 25.7083V27.7917C11.125 28.3442 11.3445 28.8741 11.7352 29.2648C12.1259 29.6555 12.6558 29.875 13.2083 29.875H15.2917M25.7083 29.875H27.7917C28.3442 29.875 28.8741 29.6555 29.2648 29.2648C29.6555 28.8741 29.875 28.3442 29.875 27.7917V25.7083M29.875 15.2917V13.2083C29.875 12.6558 29.6555 12.1259 29.2648 11.7352C28.8741 11.3445 28.3442 11.125 27.7917 11.125H25.7083" stroke="#D3EAFF" stroke-width="2.66667" stroke-linecap="round" stroke-linejoin="round"/>
</g>
<defs>
<clipPath id="clip0_12_1275">
<rect width="25" height="25" fill="white" transform="translate(8.25 8)"/>
</clipPath>
</defs>
</svg>
