<svg width="43" height="42" viewBox="0 0 43 42" fill="none" xmlns="http://www.w3.org/2000/svg">
<path d="M21.7812 1.3125C10.9085 1.3125 2.09375 10.1272 2.09375 21C2.09375 31.8727 10.9085 40.6875 21.7812 40.6875C32.654 40.6875 41.4688 31.8727 41.4688 21C41.4688 10.1272 32.654 1.3125 21.7812 1.3125Z" fill="#002A48"/>
<g clip-path="url(#clip0_12_1303)">
<path d="M27.2293 14.7709C27.2293 18.9772 27.6918 23.1688 28.6064 27.2709M28.6064 27.2709H28.271C27.5803 27.2709 26.9179 27.5453 26.4296 28.0337C25.9412 28.522 25.6668 29.1844 25.6668 29.8751V30.3959M28.6064 27.2709C28.7448 27.8907 28.8934 28.5081 29.0522 29.123L29.3127 30.1355V30.3959H13.6877V30.1355L13.9491 29.123C14.1076 28.5081 14.2559 27.8907 14.3939 27.2709M15.771 14.7709C15.771 18.9772 15.3085 23.1688 14.3939 27.2709M14.3939 27.2709H14.7293C15.42 27.2709 16.0824 27.5453 16.5708 28.0337C17.0591 28.522 17.3335 29.1844 17.3335 29.8751V30.3959M13.1668 14.7709H29.8335M13.1668 18.9376H9.521V10.6042H33.4793V18.9376H29.8335M21.5002 23.1042C20.9476 23.1042 20.4177 22.8848 20.027 22.4941C19.6363 22.1034 19.4168 21.5734 19.4168 21.0209C19.4168 20.4684 19.6363 19.9385 20.027 19.5478C20.4177 19.1571 20.9476 18.9376 21.5002 18.9376C22.0527 18.9376 22.5826 19.1571 22.9733 19.5478C23.364 19.9385 23.5835 20.4684 23.5835 21.0209C23.5835 21.5734 23.364 22.1034 22.9733 22.4941C22.5826 22.8848 22.0527 23.1042 21.5002 23.1042Z" stroke="#D3EAFF" stroke-width="1.33333"/>
</g>
<defs>
<clipPath id="clip0_12_1303">
<rect width="25" height="25" fill="white" transform="translate(9 8)"/>
</clipPath>
</defs>
</svg>
