<svg width="43" height="42" viewBox="0 0 43 42" fill="none" xmlns="http://www.w3.org/2000/svg">
<path d="M21.0312 1.3125C10.1585 1.3125 1.34375 10.1272 1.34375 21C1.34375 31.8727 10.1585 40.6875 21.0312 40.6875C31.904 40.6875 40.7188 31.8727 40.7188 21C40.7188 10.1272 31.904 1.3125 21.0312 1.3125Z" fill="#002A48"/>
<g clip-path="url(#clip0_12_1285)">
<path d="M15.5833 10C14.0206 10 12.75 11.2332 12.75 12.75V29.25C12.75 30.7668 14.0206 32 15.5833 32H26.9167C28.4794 32 29.75 30.7668 29.75 29.25V16.875H24.0833C23.2997 16.875 22.6667 16.2605 22.6667 15.5V10H15.5833ZM24.0833 10V15.5H29.75L24.0833 10ZM16.2917 12.75H19.125C19.5146 12.75 19.8333 13.0594 19.8333 13.4375C19.8333 13.8156 19.5146 14.125 19.125 14.125H16.2917C15.9021 14.125 15.5833 13.8156 15.5833 13.4375C15.5833 13.0594 15.9021 12.75 16.2917 12.75ZM16.2917 15.5H19.125C19.5146 15.5 19.8333 15.8094 19.8333 16.1875C19.8333 16.5656 19.5146 16.875 19.125 16.875H16.2917C15.9021 16.875 15.5833 16.5656 15.5833 16.1875C15.5833 15.8094 15.9021 15.5 16.2917 15.5ZM17 19.625H25.5C26.2836 19.625 26.9167 20.2395 26.9167 21V23.75C26.9167 24.5105 26.2836 25.125 25.5 25.125H17C16.2164 25.125 15.5833 24.5105 15.5833 23.75V21C15.5833 20.2395 16.2164 19.625 17 19.625ZM17 21V23.75H25.5V21H17ZM23.375 27.875H26.2083C26.5979 27.875 26.9167 28.1844 26.9167 28.5625C26.9167 28.9406 26.5979 29.25 26.2083 29.25H23.375C22.9854 29.25 22.6667 28.9406 22.6667 28.5625C22.6667 28.1844 22.9854 27.875 23.375 27.875Z" fill="#D3EAFF"/>
</g>
<defs>
<clipPath id="clip0_12_1285">
<rect width="17" height="22" fill="white" transform="translate(12.75 10)"/>
</clipPath>
</defs>
</svg>
