<svg width="43" height="42" viewBox="0 0 43 42" fill="none" xmlns="http://www.w3.org/2000/svg">
<path d="M21.7812 1.3125C10.9085 1.3125 2.09375 10.1272 2.09375 21C2.09375 31.8727 10.9085 40.6875 21.7812 40.6875C32.654 40.6875 41.4688 31.8727 41.4688 21C41.4688 10.1272 32.654 1.3125 21.7812 1.3125Z" fill="#002A48"/>
<g clip-path="url(#clip0_12_1312)">
<path d="M26.5 17.25C26.5 17.0511 26.579 16.8603 26.7197 16.7197C26.8603 16.579 27.0511 16.5 27.25 16.5H30.25C30.4489 16.5 30.6397 16.579 30.7803 16.7197C30.921 16.8603 31 17.0511 31 17.25V18.75C31 18.9489 30.921 19.1397 30.7803 19.2803C30.6397 19.421 30.4489 19.5 30.25 19.5H27.25C27.0511 19.5 26.8603 19.421 26.7197 19.2803C26.579 19.1397 26.5 18.9489 26.5 18.75V17.25Z" fill="#D3EAFF"/>
<path d="M13 12C12.2044 12 11.4413 12.3161 10.8787 12.8787C10.3161 13.4413 10 14.2044 10 15V27C10 27.7956 10.3161 28.5587 10.8787 29.1213C11.4413 29.6839 12.2044 30 13 30H31C31.7956 30 32.5587 29.6839 33.1213 29.1213C33.6839 28.5587 34 27.7956 34 27V15C34 14.2044 33.6839 13.4413 33.1213 12.8787C32.5587 12.3161 31.7956 12 31 12H13ZM32.5 15V22.5H11.5V15C11.5 14.6022 11.658 14.2206 11.9393 13.9393C12.2206 13.658 12.6022 13.5 13 13.5H31C31.3978 13.5 31.7794 13.658 32.0607 13.9393C32.342 14.2206 32.5 14.6022 32.5 15ZM31 28.5H13C12.6022 28.5 12.2206 28.342 11.9393 28.0607C11.658 27.7794 11.5 27.3978 11.5 27V25.5H32.5V27C32.5 27.3978 32.342 27.7794 32.0607 28.0607C31.7794 28.342 31.3978 28.5 31 28.5Z" fill="#D3EAFF"/>
</g>
<defs>
<clipPath id="clip0_12_1312">
<rect width="24" height="24" fill="white" transform="translate(10 9)"/>
</clipPath>
</defs>
</svg>
