<svg width="43" height="42" viewBox="0 0 43 42" fill="none" xmlns="http://www.w3.org/2000/svg">
<g clip-path="url(#clip0_12_1264)">
<path fill-rule="evenodd" clip-rule="evenodd" d="M21.0312 41.1924C32.1838 41.1924 41.2235 32.1527 41.2235 21C41.2235 9.84743 32.1838 0.807739 21.0312 0.807739C9.87856 0.807739 0.838867 9.84743 0.838867 21C0.838867 32.1527 9.87856 41.1924 21.0312 41.1924Z" fill="#002A48"/>
<path fill-rule="evenodd" clip-rule="evenodd" d="M6.89648 17.4495C6.89648 16.3784 7.32196 15.3512 8.07932 14.5938C8.83668 13.8365 9.86388 13.411 10.9349 13.411H30.3196C31.3906 13.411 32.4178 13.8365 33.1752 14.5938C33.9325 15.3512 34.358 16.3784 34.358 17.4495V25.5264C34.358 26.5975 33.9325 27.6247 33.1752 28.382C32.4178 29.1394 31.3906 29.5649 30.3196 29.5649H10.9349C9.86388 29.5649 8.83668 29.1394 8.07932 28.382C7.32196 27.6247 6.89648 26.5975 6.89648 25.5264V17.4495ZM10.9349 15.0264C10.2923 15.0264 9.67599 15.2817 9.22157 15.7361C8.76716 16.1905 8.51187 16.8068 8.51187 17.4495V25.5264C8.51187 26.169 8.76716 26.7854 9.22157 27.2398C9.67599 27.6942 10.2923 27.9495 10.9349 27.9495H30.3196C30.9622 27.9495 31.5785 27.6942 32.0329 27.2398C32.4874 26.7854 32.7426 26.169 32.7426 25.5264V17.4495C32.7426 16.8068 32.4874 16.1905 32.0329 15.7361C31.5785 15.2817 30.9622 15.0264 30.3196 15.0264H10.9349Z" fill="#D3EAFF"/>
<path d="M23.8517 21.4879C23.8518 21.9122 23.7683 22.3323 23.6061 22.7244C23.4438 23.1164 23.2059 23.4726 22.906 23.7727C22.606 24.0728 22.2499 24.3108 21.858 24.4733C21.4661 24.6357 21.046 24.7194 20.6217 24.7195C20.1974 24.7196 19.7773 24.6362 19.3853 24.4739C18.9933 24.3116 18.6371 24.0737 18.337 23.7738C18.0369 23.4739 17.7988 23.1178 17.6364 22.7259C17.4739 22.3339 17.3902 21.9138 17.3901 21.4896C17.3901 20.6327 17.7305 19.8109 18.3364 19.2051C18.9423 18.5992 19.7641 18.2588 20.6209 18.2588C21.4778 18.2588 22.2995 18.5992 22.9054 19.2051C23.5113 19.8109 23.8517 20.6327 23.8517 21.4896V21.4879Z" fill="#D3EAFF"/>
<path fill-rule="evenodd" clip-rule="evenodd" d="M20.6225 23.1033C20.8389 23.1101 21.0544 23.0733 21.2562 22.9951C21.458 22.9169 21.6421 22.799 21.7974 22.6483C21.9528 22.4977 22.0763 22.3173 22.1606 22.1179C22.2449 21.9186 22.2883 21.7044 22.2882 21.4879C22.2881 21.2715 22.2445 21.0573 22.16 20.858C22.0755 20.6588 21.9518 20.4785 21.7963 20.328C21.6408 20.1775 21.4566 20.0597 21.2547 19.9818C21.0528 19.9038 20.8373 19.8672 20.6209 19.8742C20.1925 19.8742 19.7816 20.0444 19.4787 20.3473C19.1757 20.6503 19.0055 21.0611 19.0055 21.4896C19.0055 21.918 19.1757 22.3289 19.4787 22.6318C19.7816 22.9348 20.1925 23.105 20.6209 23.105L20.6225 23.1033ZM20.6225 24.7187C21.0528 24.7282 21.4806 24.6517 21.8809 24.4936C22.2811 24.3355 22.6458 24.099 22.9534 23.7981C23.261 23.4971 23.5054 23.1377 23.6722 22.741C23.839 22.3443 23.9248 21.9183 23.9247 21.4879C23.9246 21.0576 23.8386 20.6316 23.6715 20.235C23.5045 19.8383 23.26 19.4791 22.9522 19.1783C22.6444 18.8775 22.2797 18.6412 21.8794 18.4833C21.479 18.3254 21.0512 18.2491 20.6209 18.2588C19.7641 18.2588 18.9423 18.5992 18.3364 19.2051C17.7305 19.811 17.3902 20.6327 17.3902 21.4896C17.3902 22.3464 17.7305 23.1682 18.3364 23.7741C18.9423 24.38 19.7641 24.7203 20.6209 24.7203L20.6225 24.7187ZM33.6248 22.168C33.8304 22.2282 34.0037 22.3676 34.1066 22.5556C34.2094 22.7436 34.2334 22.9647 34.1732 23.1704C34.113 23.376 33.9736 23.5493 33.7856 23.6522C33.5976 23.755 33.3765 23.779 33.1709 23.7188H33.1676L33.1644 23.7172L33.1547 23.714L33.1256 23.7059C32.9818 23.6584 32.8395 23.6061 32.6992 23.5492C32.3081 23.3873 31.9268 23.2028 31.5571 22.9967C30.2472 22.2609 29.048 21.3434 27.9952 20.2716C26.8923 19.1763 25.9897 17.8965 25.3282 16.49C25.1351 16.077 24.9695 15.6518 24.8322 15.217C24.7828 15.0588 24.7391 14.8987 24.7014 14.7373L24.6949 14.7049L24.6917 14.6953V14.6904L25.4832 14.5321M33.6248 22.168H33.628H33.6248ZM7.0097 19.64C7.0851 19.4394 7.23707 19.2771 7.43216 19.1886C7.52877 19.1448 7.63305 19.1205 7.73906 19.117C7.84507 19.1135 7.95073 19.1309 8.05001 19.1683L8.05485 19.1699L8.06293 19.1731L8.09039 19.1844L8.18893 19.2248C8.72108 19.4527 9.23991 19.7105 9.74293 19.997C10.7202 20.5543 12.0045 21.4169 13.2225 22.6381C14.2638 23.6976 15.1337 24.913 15.8006 26.2404C16.0703 26.7735 16.3056 27.3233 16.5049 27.8865L16.5405 27.9915L16.5502 28.0222L16.5534 28.0319V28.0351L15.7812 28.2693L16.555 28.0367C16.6169 28.2419 16.5948 28.4633 16.4934 28.6522C16.3921 28.8411 16.2199 28.982 16.0147 29.0439C15.8094 29.1058 15.588 29.0837 15.3992 28.9823C15.2103 28.881 15.0694 28.7088 15.0075 28.5036V28.5003L15.0026 28.4842C14.8221 27.9665 14.6073 27.4614 14.3597 26.9722C13.7692 25.7956 12.9992 24.7182 12.0772 23.7786C10.7772 22.4889 9.24969 21.451 7.57185 20.7174C7.5477 20.7075 7.52347 20.6978 7.49916 20.6883L7.48301 20.6819M7.0097 19.64C6.97236 19.7392 6.95495 19.8449 6.95845 19.9509C6.96195 20.0569 6.98629 20.1612 7.03009 20.2578C7.11855 20.4529 7.28089 20.6049 7.48139 20.6803L7.0097 19.64Z" fill="#D3EAFF"/>
</g>
<defs>
<clipPath id="clip0_12_1264">
<rect width="42" height="42" fill="white" transform="translate(0.03125)"/>
</clipPath>
</defs>
</svg>
