<svg width="43" height="42" viewBox="0 0 43 42" fill="none" xmlns="http://www.w3.org/2000/svg">
<path d="M21.9688 1.3125C11.096 1.3125 2.28125 10.1272 2.28125 21C2.28125 31.8727 11.096 40.6875 21.9688 40.6875C32.8415 40.6875 41.6562 31.8727 41.6562 21C41.6562 10.1272 32.8415 1.3125 21.9688 1.3125ZM30.5 32.4844C30.5 34.2969 28.9722 35.7656 27.0882 35.7656H16.8507C14.9672 35.7656 13.4382 34.2969 13.4382 32.4844V9.51562C13.4382 7.70306 14.9672 6.23438 16.8507 6.23438H27.0882C28.9722 6.23438 30.5 7.70306 30.5 9.51562V15.9141H28.7938V9.51562H15.1438V30.5156H28.7938V26.0859H30.5V32.4844Z" fill="#002A48"/>
<path fill-rule="evenodd" clip-rule="evenodd" d="M29.8438 15.75C26.9442 15.75 24.5938 18.1004 24.5938 21C24.5938 23.8996 26.9442 26.25 29.8438 26.25C32.7433 26.25 35.0938 23.8996 35.0938 21C35.0938 18.1004 32.7433 15.75 29.8438 15.75ZM27.7437 18.9C27.7437 18.7608 27.7991 18.6272 27.8975 18.5288C27.996 18.4303 28.1295 18.375 28.2687 18.375H31.4187C31.558 18.375 31.6915 18.4303 31.79 18.5288C31.8884 18.6272 31.9437 18.7608 31.9437 18.9C31.9437 19.0392 31.8884 19.1728 31.79 19.2712C31.6915 19.3697 31.558 19.425 31.4187 19.425H30.6129C30.7068 19.5877 30.7798 19.7636 30.8276 19.95H31.4187C31.558 19.95 31.6915 20.0053 31.79 20.1038C31.8884 20.2022 31.9437 20.3358 31.9437 20.475C31.9437 20.6142 31.8884 20.7478 31.79 20.8462C31.6915 20.9447 31.558 21 31.4187 21H30.8276C30.747 21.3112 30.5961 21.5999 30.3866 21.8438C30.1771 22.0877 29.9146 22.2803 29.619 22.407L30.6838 23.205C30.7951 23.2885 30.8688 23.4129 30.8885 23.5508C30.9082 23.6886 30.8723 23.8286 30.7887 23.94C30.7052 24.0514 30.5808 24.125 30.443 24.1447C30.3052 24.1644 30.1651 24.1285 30.0537 24.045L27.9579 22.4731C27.8911 22.4248 27.8368 22.3612 27.7995 22.2875C27.7623 22.2139 27.7432 22.1325 27.7437 22.05C27.7437 21.9151 27.7978 21.7854 27.8855 21.6914C27.9343 21.6386 27.9936 21.5964 28.0596 21.5678C28.1256 21.5391 28.1968 21.5246 28.2687 21.525H28.7937C28.9781 21.525 29.1591 21.4765 29.3187 21.3843C29.4783 21.2922 29.6109 21.1596 29.7031 21H28.2687C28.1295 21 27.996 20.9447 27.8975 20.8462C27.7991 20.7478 27.7437 20.6142 27.7437 20.475C27.7437 20.3358 27.7991 20.2022 27.8975 20.1038C27.996 20.0053 28.1295 19.95 28.2687 19.95H29.7031C29.6109 19.7904 29.4783 19.6578 29.3187 19.5657C29.1591 19.4735 28.9781 19.425 28.7937 19.425H28.2687C28.1295 19.425 27.996 19.3697 27.8975 19.2712C27.7991 19.1728 27.7437 19.0392 27.7437 18.9Z" fill="#D3EAFF"/>
</svg>
