<svg width="1837" height="1357" viewBox="0 0 1837 1357" fill="none" xmlns="http://www.w3.org/2000/svg">
<path d="M951.933 30.1333L947.467 25.7333H941.267V19.5333L936.867 15.0667L941.267 10.6V4.4H947.467L951.933 0L956.4 4.4H962.6V10.6L967 15.0667L962.6 19.5333V25.7333H956.4L951.933 30.1333ZM948.033 20.7333L951.933 18.3667L955.833 20.7333L954.8 16.3L958.267 13.3L953.7 12.9333L951.933 8.73333L950.167 12.9333L945.6 13.3L949.067 16.3L948.033 20.7333Z" fill="#D3FFF5" fill-opacity="0.5"/>
<path d="M897.88 1264.26L898.132 1263.3L896.88 1262.97V1264.26H897.88ZM940 1275.24H941V1274.47L940.252 1274.28L940 1275.24ZM940 1287.66L940.236 1288.64L941 1288.45V1287.66H940ZM912.28 1294.38L912.044 1293.41L912.036 1295.35L912.28 1294.38ZM940 1301.34H941V1300.56L940.244 1300.37L940 1301.34ZM940 1313.76L940.246 1314.73L941 1314.54V1313.76H940ZM897.88 1324.44H896.88V1325.73L898.126 1325.41L897.88 1324.44ZM897.88 1313.46L897.686 1312.48L896.88 1312.64V1313.46H897.88ZM928.54 1307.4L928.734 1308.38L928.778 1306.43L928.54 1307.4ZM897.88 1299.9H896.88V1300.69L897.642 1300.88L897.88 1299.9ZM897.88 1288.62L897.651 1287.65L896.88 1287.83V1288.62H897.88ZM928.54 1281.42L928.769 1282.4L928.736 1280.44L928.54 1281.42ZM897.88 1275.3H896.88V1276.12L897.684 1276.28L897.88 1275.3ZM897.628 1265.23L939.748 1276.21L940.252 1274.28L898.132 1263.3L897.628 1265.23ZM939 1275.24V1287.66H941V1275.24H939ZM939.764 1286.69L912.044 1293.41L912.516 1295.36L940.236 1288.64L939.764 1286.69ZM912.036 1295.35L939.756 1302.31L940.244 1300.37L912.524 1293.41L912.036 1295.35ZM939 1301.34V1313.76H941V1301.34H939ZM939.754 1312.79L897.634 1323.47L898.126 1325.41L940.246 1314.73L939.754 1312.79ZM898.88 1324.44V1313.46H896.88V1324.44H898.88ZM898.074 1314.44L928.734 1308.38L928.346 1306.42L897.686 1312.48L898.074 1314.44ZM928.778 1306.43L898.118 1298.93L897.642 1300.88L928.302 1308.38L928.778 1306.43ZM898.88 1299.9V1288.62H896.88V1299.9H898.88ZM898.109 1289.6L928.769 1282.4L928.311 1280.45L897.651 1287.65L898.109 1289.6ZM928.736 1280.44L898.076 1274.32L897.684 1276.28L928.344 1282.4L928.736 1280.44ZM898.88 1275.3V1264.26H896.88V1275.3H898.88ZM925.72 1225.74H926.72V1224.85L925.835 1224.74L925.72 1225.74ZM925.72 1248.96H924.72V1250.04L925.797 1249.96L925.72 1248.96ZM930.52 1246.98L931.239 1247.67L931.252 1247.66L931.263 1247.65L930.52 1246.98ZM928.9 1237.26H927.9V1237.9L928.48 1238.17L928.9 1237.26ZM928.9 1226.34L929.147 1225.37L927.9 1225.05V1226.34H928.9ZM934.84 1229.4L934.196 1230.16L934.207 1230.17L934.84 1229.4ZM938.98 1234.86L939.89 1234.44L938.98 1234.86ZM938.38 1251L939.257 1251.48L939.257 1251.48L938.38 1251ZM932.38 1257L931.895 1256.12L931.895 1256.12L932.38 1257ZM914.14 1257.06L913.655 1257.93L913.666 1257.94L914.14 1257.06ZM908.14 1251.06L909.017 1250.58L909.017 1250.58L908.14 1251.06ZM908.08 1233.6L908.96 1234.07L908.96 1234.07L908.08 1233.6ZM913.9 1227.72L914.386 1228.59L914.396 1228.59L913.9 1227.72ZM920.02 1236.06H921.02V1235.06H920.02V1236.06ZM915.82 1237.86L915.064 1237.2L915.064 1237.2L915.82 1237.86ZM915.76 1246.74L914.992 1247.38L914.997 1247.38L915.003 1247.39L915.76 1246.74ZM920.02 1248.9L919.87 1249.89L921.02 1250.06V1248.9H920.02ZM922.72 1226.56C923.638 1226.56 924.6 1226.62 925.605 1226.73L925.835 1224.74C924.76 1224.62 923.722 1224.56 922.72 1224.56V1226.56ZM924.72 1225.74V1248.96H926.72V1225.74H924.72ZM925.797 1249.96C928.047 1249.78 929.904 1249.06 931.239 1247.67L929.801 1246.28C928.896 1247.22 927.553 1247.81 925.643 1247.96L925.797 1249.96ZM931.263 1247.65C932.52 1246.25 933.14 1244.55 933.14 1242.6H931.14C931.14 1244.09 930.68 1245.31 929.777 1246.31L931.263 1247.65ZM933.14 1242.6C933.14 1241.18 932.839 1239.9 932.185 1238.82C931.528 1237.74 930.554 1236.92 929.32 1236.35L928.48 1238.17C929.406 1238.59 930.052 1239.17 930.475 1239.86C930.901 1240.56 931.14 1241.46 931.14 1242.6H933.14ZM929.9 1237.26V1226.34H927.9V1237.26H929.9ZM928.653 1227.31C930.705 1227.83 932.55 1228.78 934.196 1230.16L935.484 1228.63C933.61 1227.06 931.495 1225.97 929.147 1225.37L928.653 1227.31ZM934.207 1230.17C935.841 1231.51 937.129 1233.2 938.07 1235.27L939.89 1234.44C938.831 1232.11 937.359 1230.17 935.473 1228.62L934.207 1230.17ZM938.07 1235.27C939.004 1237.33 939.48 1239.64 939.48 1242.24H941.48C941.48 1239.39 940.956 1236.79 939.89 1234.44L938.07 1235.27ZM939.48 1242.24C939.48 1245.37 938.813 1248.12 937.503 1250.52L939.257 1251.48C940.747 1248.75 941.48 1245.66 941.48 1242.24H939.48ZM937.503 1250.52C936.195 1252.91 934.333 1254.77 931.895 1256.12L932.864 1257.87C935.627 1256.34 937.765 1254.21 939.257 1251.48L937.503 1250.52ZM931.895 1256.12C929.467 1257.47 926.6 1258.16 923.26 1258.16V1260.16C926.88 1260.16 930.093 1259.41 932.864 1257.87L931.895 1256.12ZM923.26 1258.16C919.916 1258.16 917.044 1257.49 914.614 1256.18L913.666 1257.94C916.436 1259.43 919.644 1260.16 923.26 1260.16V1258.16ZM914.624 1256.18C912.187 1254.83 910.325 1252.97 909.017 1250.58L907.263 1251.54C908.755 1254.27 910.893 1256.4 913.655 1257.93L914.624 1256.18ZM909.017 1250.58C907.708 1248.18 907.04 1245.41 907.04 1242.24H905.04C905.04 1245.7 905.772 1248.81 907.263 1251.54L909.017 1250.58ZM907.04 1242.24C907.04 1239.14 907.689 1236.43 908.96 1234.07L907.2 1233.12C905.751 1235.81 905.04 1238.85 905.04 1242.24H907.04ZM908.96 1234.07C910.229 1231.72 912.031 1229.9 914.386 1228.59L913.414 1226.84C910.729 1228.34 908.651 1230.43 907.2 1233.12L908.96 1234.07ZM914.396 1228.59C916.743 1227.25 919.506 1226.56 922.72 1226.56V1224.56C919.214 1224.56 916.097 1225.31 913.404 1226.85L914.396 1228.59ZM920.02 1235.06C918.005 1235.06 916.316 1235.76 915.064 1237.2L916.576 1238.51C917.404 1237.56 918.515 1237.06 920.02 1237.06V1235.06ZM915.064 1237.2C913.846 1238.61 913.26 1240.35 913.26 1242.36H915.26C915.26 1240.76 915.714 1239.51 916.576 1238.51L915.064 1237.2ZM913.26 1242.36C913.26 1244.29 913.827 1245.98 914.992 1247.38L916.528 1246.1C915.693 1245.1 915.26 1243.87 915.26 1242.36H913.26ZM915.003 1247.39C916.19 1248.77 917.847 1249.58 919.87 1249.89L920.17 1247.91C918.513 1247.66 917.33 1247.03 916.517 1246.09L915.003 1247.39ZM921.02 1248.9V1236.06H919.02V1248.9H921.02ZM938.98 1197.61L938.064 1197.21L938.064 1197.21L938.98 1197.61ZM934.9 1203.01L935.5 1203.81L935.509 1203.8L934.9 1203.01ZM929.02 1205.23H928.02V1206.31L929.094 1206.23L929.02 1205.23ZM929.02 1195.09L928.917 1194.1L928.02 1194.19V1195.09H929.02ZM931.84 1193.47L931.04 1192.87L931.04 1192.87L931.84 1193.47ZM932.2 1186.99L933.017 1186.41L933.011 1186.41L932.2 1186.99ZM928.12 1187.41L929.022 1187.84L929.029 1187.83L929.035 1187.81L928.12 1187.41ZM926.56 1192.27L925.59 1192.03L925.588 1192.04L925.586 1192.04L926.56 1192.27ZM924.82 1198.27L925.748 1198.64L925.753 1198.63L925.756 1198.62L924.82 1198.27ZM921.88 1202.41L922.529 1203.17L922.535 1203.17L922.54 1203.16L921.88 1202.41ZM911.2 1202.59L910.641 1203.42L910.645 1203.42L911.2 1202.59ZM907.42 1197.91L906.505 1198.32L906.508 1198.32L907.42 1197.91ZM909.16 1180.63L909.916 1181.29L909.921 1181.28L909.16 1180.63ZM917.44 1176.43H918.44V1175.32L917.336 1175.44L917.44 1176.43ZM917.44 1185.91L917.577 1186.9L918.44 1186.78V1185.91H917.44ZM914.68 1187.47L915.457 1188.1L915.464 1188.09L915.471 1188.08L914.68 1187.47ZM914.38 1193.59L915.204 1193.02L915.192 1193.01L915.18 1192.99L914.38 1193.59ZM918.4 1193.05L919.302 1193.48L919.305 1193.48L919.308 1193.47L918.4 1193.05ZM919.84 1188.25L918.872 1188L918.867 1188.02L918.864 1188.03L919.84 1188.25ZM921.76 1182.19L922.685 1182.57L922.689 1182.56L922.693 1182.55L921.76 1182.19ZM924.76 1178.11L925.398 1178.88L925.41 1178.87L925.422 1178.86L924.76 1178.11ZM930.28 1176.25V1175.25H930.271L930.263 1175.25L930.28 1176.25ZM935.56 1177.93L934.977 1178.74L934.981 1178.75L935.56 1177.93ZM939.16 1182.67L938.239 1183.06L938.242 1183.07L939.16 1182.67ZM939.48 1189.81C939.48 1192.62 939 1195.08 938.064 1197.21L939.896 1198.01C940.96 1195.59 941.48 1192.85 941.48 1189.81H939.48ZM938.064 1197.21C937.122 1199.36 935.859 1201.01 934.291 1202.22L935.509 1203.8C937.381 1202.37 938.838 1200.42 939.896 1198.01L938.064 1197.21ZM934.3 1202.21C932.69 1203.42 930.912 1204.09 928.946 1204.23L929.094 1206.23C931.448 1206.05 933.59 1205.24 935.5 1203.81L934.3 1202.21ZM930.02 1205.23V1195.09H928.02V1205.23H930.02ZM929.123 1196.09C930.569 1195.94 931.758 1195.25 932.64 1194.07L931.04 1192.87C930.482 1193.62 929.791 1194.01 928.917 1194.1L929.123 1196.09ZM932.64 1194.07C933.511 1192.91 933.92 1191.51 933.92 1189.93H931.92C931.92 1191.15 931.609 1192.11 931.04 1192.87L932.64 1194.07ZM933.92 1189.93C933.92 1188.55 933.664 1187.33 933.017 1186.41L931.383 1187.57C931.696 1188.01 931.92 1188.75 931.92 1189.93H933.92ZM933.011 1186.41C932.327 1185.46 931.38 1184.91 930.22 1184.91V1186.91C930.66 1186.91 931.033 1187.08 931.389 1187.58L933.011 1186.41ZM930.22 1184.91C929.557 1184.91 928.933 1185.09 928.394 1185.47C927.863 1185.85 927.478 1186.39 927.205 1187.01L929.035 1187.81C929.202 1187.43 929.387 1187.22 929.556 1187.1C929.717 1186.98 929.923 1186.91 930.22 1186.91V1184.91ZM927.218 1186.98C926.692 1188.07 926.153 1189.78 925.59 1192.03L927.53 1192.51C928.087 1190.28 928.588 1188.75 929.022 1187.84L927.218 1186.98ZM925.586 1192.04C925.032 1194.42 924.463 1196.37 923.884 1197.92L925.756 1198.62C926.377 1196.97 926.968 1194.92 927.534 1192.5L925.586 1192.04ZM923.892 1197.9C923.311 1199.35 922.424 1200.6 921.22 1201.66L922.54 1203.16C923.976 1201.9 925.049 1200.39 925.748 1198.64L923.892 1197.9ZM921.231 1201.65C920.097 1202.62 918.529 1203.15 916.42 1203.15V1205.15C918.871 1205.15 920.943 1204.52 922.529 1203.17L921.231 1201.65ZM916.42 1203.15C914.692 1203.15 913.146 1202.69 911.755 1201.76L910.645 1203.42C912.374 1204.58 914.308 1205.15 916.42 1205.15V1203.15ZM911.759 1201.76C910.337 1200.8 909.188 1199.4 908.332 1197.5L906.508 1198.32C907.492 1200.5 908.863 1202.22 910.641 1203.42L911.759 1201.76ZM908.335 1197.51C907.483 1195.58 907.04 1193.27 907.04 1190.53H905.04C905.04 1193.48 905.517 1196.08 906.505 1198.32L908.335 1197.51ZM907.04 1190.53C907.04 1186.49 908.038 1183.45 909.916 1181.29L908.404 1179.98C906.122 1182.61 905.04 1186.17 905.04 1190.53H907.04ZM909.921 1181.28C911.821 1179.05 914.337 1177.76 917.544 1177.43L917.336 1175.44C913.663 1175.82 910.659 1177.33 908.399 1179.98L909.921 1181.28ZM916.44 1176.43V1185.91H918.44V1176.43H916.44ZM917.303 1184.92C915.899 1185.11 914.738 1185.76 913.889 1186.86L915.471 1188.08C915.982 1187.42 916.661 1187.03 917.577 1186.9L917.303 1184.92ZM913.903 1186.84C913.041 1187.91 912.66 1189.27 912.66 1190.83H914.66C914.66 1189.59 914.959 1188.72 915.457 1188.1L913.903 1186.84ZM912.66 1190.83C912.66 1192.14 912.92 1193.31 913.58 1194.19L915.18 1192.99C914.88 1192.59 914.66 1191.92 914.66 1190.83H912.66ZM913.556 1194.16C914.189 1195.08 915.123 1195.55 916.24 1195.55V1193.55C915.757 1193.55 915.451 1193.38 915.204 1193.02L913.556 1194.16ZM916.24 1195.55C916.904 1195.55 917.527 1195.37 918.07 1195C918.606 1194.63 919.006 1194.1 919.302 1193.48L917.498 1192.62C917.314 1193 917.114 1193.23 916.93 1193.35C916.753 1193.48 916.536 1193.55 916.24 1193.55V1195.55ZM919.308 1193.47C919.834 1192.33 920.332 1190.65 920.816 1188.47L918.864 1188.03C918.388 1190.18 917.926 1191.69 917.492 1192.63L919.308 1193.47ZM920.808 1188.5C921.442 1186.04 922.069 1184.07 922.685 1182.57L920.835 1181.81C920.171 1183.43 919.518 1185.5 918.872 1188L920.808 1188.5ZM922.693 1182.55C923.226 1181.16 924.118 1179.94 925.398 1178.88L924.122 1177.34C922.602 1178.6 921.494 1180.1 920.827 1181.83L922.693 1182.55ZM925.422 1178.86C926.558 1177.86 928.147 1177.29 930.297 1177.25L930.263 1175.25C927.773 1175.29 925.682 1175.96 924.098 1177.36L925.422 1178.86ZM930.28 1177.25C932.035 1177.25 933.59 1177.75 934.977 1178.74L936.143 1177.12C934.41 1175.87 932.445 1175.25 930.28 1175.25V1177.25ZM934.981 1178.75C936.32 1179.7 937.416 1181.12 938.239 1183.06L940.081 1182.28C939.144 1180.07 937.84 1178.32 936.139 1177.12L934.981 1178.75ZM938.242 1183.07C939.057 1184.96 939.48 1187.2 939.48 1189.81H941.48C941.48 1186.98 941.023 1184.46 940.078 1182.27L938.242 1183.07ZM925.72 1136.59H926.72V1135.7L925.835 1135.6L925.72 1136.59ZM925.72 1159.81H924.72V1160.89L925.797 1160.81L925.72 1159.81ZM930.52 1157.83L931.239 1158.53L931.252 1158.52L931.263 1158.5L930.52 1157.83ZM928.9 1148.11H927.9V1148.75L928.48 1149.02L928.9 1148.11ZM928.9 1137.19L929.147 1136.22L927.9 1135.91V1137.19H928.9ZM934.84 1140.25L934.196 1141.02L934.207 1141.03L934.84 1140.25ZM938.98 1145.71L939.89 1145.3L938.98 1145.71ZM938.38 1161.85L939.257 1162.33L939.257 1162.33L938.38 1161.85ZM932.38 1167.85L931.895 1166.98L931.895 1166.98L932.38 1167.85ZM914.14 1167.91L913.655 1168.79L913.666 1168.79L914.14 1167.91ZM908.14 1161.91L909.017 1161.43L909.017 1161.43L908.14 1161.91ZM908.08 1144.45L908.96 1144.93L908.96 1144.93L908.08 1144.45ZM913.9 1138.57L914.386 1139.45L914.396 1139.44L913.9 1138.57ZM920.02 1146.91H921.02V1145.91H920.02V1146.91ZM915.82 1148.71L915.064 1148.06L915.064 1148.06L915.82 1148.71ZM915.76 1157.59L914.992 1158.23L914.997 1158.24L915.003 1158.25L915.76 1157.59ZM920.02 1159.75L919.87 1160.74L921.02 1160.92V1159.75H920.02ZM922.72 1137.41C923.638 1137.41 924.6 1137.47 925.605 1137.59L925.835 1135.6C924.76 1135.48 923.722 1135.41 922.72 1135.41V1137.41ZM924.72 1136.59V1159.81H926.72V1136.59H924.72ZM925.797 1160.81C928.047 1160.64 929.904 1159.91 931.239 1158.53L929.801 1157.14C928.896 1158.08 927.553 1158.67 925.643 1158.82L925.797 1160.81ZM931.263 1158.5C932.52 1157.11 933.14 1155.4 933.14 1153.45H931.14C931.14 1154.94 930.68 1156.16 929.777 1157.16L931.263 1158.5ZM933.14 1153.45C933.14 1152.03 932.839 1150.76 932.185 1149.68C931.528 1148.6 930.554 1147.78 929.32 1147.21L928.48 1149.02C929.406 1149.45 930.052 1150.02 930.475 1150.72C930.901 1151.42 931.14 1152.31 931.14 1153.45H933.14ZM929.9 1148.11V1137.19H927.9V1148.11H929.9ZM928.653 1138.16C930.705 1138.69 932.55 1139.63 934.196 1141.02L935.484 1139.49C933.61 1137.91 931.495 1136.82 929.147 1136.22L928.653 1138.16ZM934.207 1141.03C935.841 1142.36 937.129 1144.06 938.07 1146.13L939.89 1145.3C938.831 1142.97 937.359 1141.02 935.473 1139.48L934.207 1141.03ZM938.07 1146.13C939.004 1148.18 939.48 1150.5 939.48 1153.09H941.48C941.48 1150.25 940.956 1147.65 939.89 1145.3L938.07 1146.13ZM939.48 1153.09C939.48 1156.23 938.813 1158.98 937.503 1161.37L939.257 1162.33C940.747 1159.61 941.48 1156.52 941.48 1153.09H939.48ZM937.503 1161.37C936.195 1163.76 934.333 1165.63 931.895 1166.98L932.864 1168.73C935.627 1167.2 937.765 1165.06 939.257 1162.33L937.503 1161.37ZM931.895 1166.98C929.467 1168.32 926.6 1169.01 923.26 1169.01V1171.01C926.88 1171.01 930.093 1170.26 932.864 1168.73L931.895 1166.98ZM923.26 1169.01C919.916 1169.01 917.044 1168.34 914.614 1167.03L913.666 1168.79C916.436 1170.29 919.644 1171.01 923.26 1171.01V1169.01ZM914.624 1167.04C912.187 1165.69 910.325 1163.82 909.017 1161.43L907.263 1162.39C908.755 1165.12 910.893 1167.26 913.655 1168.79L914.624 1167.04ZM909.017 1161.43C907.708 1159.04 907.04 1156.27 907.04 1153.09H905.04C905.04 1156.56 905.772 1159.67 907.263 1162.39L909.017 1161.43ZM907.04 1153.09C907.04 1150 907.689 1147.28 908.96 1144.93L907.2 1143.98C905.751 1146.66 905.04 1149.71 905.04 1153.09H907.04ZM908.96 1144.93C910.229 1142.58 912.031 1140.76 914.386 1139.45L913.414 1137.7C910.729 1139.19 908.651 1141.29 907.2 1143.98L908.96 1144.93ZM914.396 1139.44C916.743 1138.1 919.506 1137.41 922.72 1137.41V1135.41C919.214 1135.41 916.097 1136.17 913.404 1137.71L914.396 1139.44ZM920.02 1145.91C918.005 1145.91 916.316 1146.61 915.064 1148.06L916.576 1149.37C917.404 1148.41 918.515 1147.91 920.02 1147.91V1145.91ZM915.064 1148.06C913.846 1149.47 913.26 1151.21 913.26 1153.21H915.26C915.26 1151.62 915.714 1150.36 916.576 1149.37L915.064 1148.06ZM913.26 1153.21C913.26 1155.14 913.827 1156.84 914.992 1158.23L916.528 1156.95C915.693 1155.95 915.26 1154.73 915.26 1153.21H913.26ZM915.003 1158.25C916.19 1159.62 917.847 1160.43 919.87 1160.74L920.17 1158.77C918.513 1158.51 917.33 1157.88 916.517 1156.94L915.003 1158.25ZM921.02 1159.75V1146.91H919.02V1159.75H921.02ZM912.1 1118.74V1119.74H915.464L912.646 1117.9L912.1 1118.74ZM907.78 1114.24L908.646 1113.74L908.642 1113.73L908.637 1113.73L907.78 1114.24ZM906.16 1108.24V1107.24H905.16V1108.24H906.16ZM917.02 1108.24H918.02V1107.24H917.02V1108.24ZM918.7 1116.82L919.464 1116.18L919.458 1116.17L919.453 1116.16L918.7 1116.82ZM940 1118.74H941V1117.74H940V1118.74ZM940 1129V1130H941V1129H940ZM906.52 1129H905.52V1130H906.52V1129ZM906.52 1118.74V1117.74H905.52V1118.74H906.52ZM912.646 1117.9C910.93 1116.78 909.603 1115.4 908.646 1113.74L906.914 1114.74C908.037 1116.69 909.59 1118.3 911.554 1119.58L912.646 1117.9ZM908.637 1113.73C907.655 1112.09 907.16 1110.27 907.16 1108.24H905.16C905.16 1110.61 905.745 1112.79 906.923 1114.76L908.637 1113.73ZM906.16 1109.24H917.02V1107.24H906.16V1109.24ZM916.02 1108.24V1111.06H918.02V1108.24H916.02ZM916.02 1111.06C916.02 1113.74 916.604 1115.94 917.947 1117.48L919.453 1116.16C918.556 1115.14 918.02 1113.5 918.02 1111.06H916.02ZM917.936 1117.47C919.3 1119.08 921.592 1119.74 924.46 1119.74V1117.74C921.808 1117.74 920.26 1117.12 919.464 1116.18L917.936 1117.47ZM924.46 1119.74H940V1117.74H924.46V1119.74ZM939 1118.74V1129H941V1118.74H939ZM940 1128H906.52V1130H940V1128ZM907.52 1129V1118.74H905.52V1129H907.52ZM906.52 1119.74H912.1V1117.74H906.52V1119.74ZM930.4 1086.28L930.691 1087.23L933.838 1086.28L930.691 1085.32L930.4 1086.28ZM906.52 1079.02H905.52V1079.76L906.229 1079.97L906.52 1079.02ZM906.52 1068.1L906.854 1067.15L905.52 1066.68V1068.1H906.52ZM940 1079.98H941V1079.27L940.334 1079.03L940 1079.98ZM940 1092.64L940.334 1093.58L941 1093.34V1092.64H940ZM906.52 1104.52H905.52V1105.93L906.854 1105.46L906.52 1104.52ZM906.52 1093.54L906.229 1092.58L905.52 1092.8V1093.54H906.52ZM930.691 1085.32L906.811 1078.06L906.229 1079.97L930.109 1087.23L930.691 1085.32ZM907.52 1079.02V1068.1H905.52V1079.02H907.52ZM906.186 1069.04L939.666 1080.92L940.334 1079.03L906.854 1067.15L906.186 1069.04ZM939 1079.98V1092.64H941V1079.98H939ZM939.666 1091.69L906.186 1103.57L906.854 1105.46L940.334 1093.58L939.666 1091.69ZM907.52 1104.52V1093.54H905.52V1104.52H907.52ZM906.811 1094.49L930.691 1087.23L930.109 1085.32L906.229 1092.58L906.811 1094.49ZM901.48 1061.06L902.2 1061.75L902.212 1061.74L902.225 1061.73L901.48 1061.06ZM893.56 1061.06L894.293 1060.38L894.292 1060.38L893.56 1061.06ZM893.56 1052.3L894.28 1052.99L894.292 1052.98L894.305 1052.97L893.56 1052.3ZM901.48 1052.3L902.213 1051.62L902.212 1051.62L901.48 1052.3ZM906.52 1051.52V1050.52H905.52V1051.52H906.52ZM940 1051.52H941V1050.52H940V1051.52ZM940 1061.78V1062.78H941V1061.78H940ZM906.52 1061.78H905.52V1062.78H906.52V1061.78ZM902.04 1056.62C902.04 1058.21 901.586 1059.44 900.735 1060.39L902.225 1061.73C903.454 1060.35 904.04 1058.62 904.04 1056.62H902.04ZM900.76 1060.36C899.869 1061.29 898.809 1061.74 897.52 1061.74V1063.74C899.351 1063.74 900.931 1063.07 902.2 1061.75L900.76 1060.36ZM897.52 1061.74C896.183 1061.74 895.134 1061.28 894.293 1060.38L892.827 1061.74C894.066 1063.07 895.657 1063.74 897.52 1063.74V1061.74ZM894.292 1060.38C893.408 1059.43 892.94 1058.2 892.94 1056.62H890.94C890.94 1058.63 891.552 1060.37 892.828 1061.74L894.292 1060.38ZM892.94 1056.62C892.94 1055.08 893.404 1053.9 894.28 1052.99L892.84 1051.6C891.556 1052.94 890.94 1054.64 890.94 1056.62H892.94ZM894.305 1052.97C895.149 1052.02 896.195 1051.56 897.52 1051.56V1049.56C895.645 1049.56 894.051 1050.25 892.815 1051.63L894.305 1052.97ZM897.52 1051.56C898.797 1051.56 899.854 1052.02 900.748 1052.98L902.212 1051.62C900.946 1050.26 899.363 1049.56 897.52 1049.56V1051.56ZM900.747 1052.98C901.589 1053.89 902.04 1055.07 902.04 1056.62H904.04C904.04 1054.65 903.451 1052.95 902.213 1051.62L900.747 1052.98ZM906.52 1052.52H940V1050.52H906.52V1052.52ZM939 1051.52V1061.78H941V1051.52H939ZM940 1060.78H906.52V1062.78H940V1060.78ZM907.52 1061.78V1051.52H905.52V1061.78H907.52ZM914.14 1042.02L913.655 1042.9L913.666 1042.9L914.14 1042.02ZM908.14 1036.08L907.263 1036.56L907.266 1036.57L908.14 1036.08ZM909.34 1016.82L910.126 1017.44L910.131 1017.44L909.34 1016.82ZM918.64 1011.24H919.64V1010L918.425 1010.27L918.64 1011.24ZM918.64 1022.16L918.978 1023.1L919.64 1022.87V1022.16H918.64ZM917.02 1032L917.634 1031.21L917.623 1031.21L917.02 1032ZM929.56 1032L930.163 1032.8L930.174 1032.79L929.56 1032ZM927.88 1022.16H926.88V1022.87L927.542 1023.1L927.88 1022.16ZM927.88 1011.24L928.099 1010.27L926.88 1009.99V1011.24H927.88ZM937.12 1016.82L936.335 1017.44L936.335 1017.44L937.12 1016.82ZM938.38 1036.08L939.254 1036.57L939.257 1036.56L938.38 1036.08ZM932.38 1042.02L932.854 1042.9L932.864 1042.9L932.38 1042.02ZM923.26 1043.12C919.916 1043.12 917.044 1042.45 914.614 1041.14L913.666 1042.9C916.436 1044.4 919.644 1045.12 923.26 1045.12V1043.12ZM914.624 1041.15C912.183 1039.8 910.32 1037.95 909.014 1035.6L907.266 1036.57C908.76 1039.26 910.897 1041.37 913.655 1042.9L914.624 1041.15ZM909.017 1035.6C907.707 1033.21 907.04 1030.46 907.04 1027.32H905.04C905.04 1030.75 905.773 1033.84 907.263 1036.56L909.017 1035.6ZM907.04 1027.32C907.04 1023.31 908.089 1020.03 910.126 1017.44L908.554 1016.21C906.191 1019.21 905.04 1022.94 905.04 1027.32H907.04ZM910.131 1017.44C912.167 1014.81 915.05 1013.06 918.855 1012.22L918.425 1010.27C914.23 1011.19 910.913 1013.16 908.549 1016.21L910.131 1017.44ZM917.64 1011.24V1022.16H919.64V1011.24H917.64ZM918.302 1021.22C916.878 1021.73 915.732 1022.51 914.948 1023.6C914.163 1024.7 913.8 1026.02 913.8 1027.5H915.8C915.8 1026.35 916.077 1025.46 916.572 1024.77C917.068 1024.08 917.842 1023.51 918.978 1023.1L918.302 1021.22ZM913.8 1027.5C913.8 1029.69 914.683 1031.49 916.417 1032.8L917.623 1031.21C916.397 1030.28 915.8 1029.07 915.8 1027.5H913.8ZM916.406 1032.79C918.089 1034.1 920.422 1034.68 923.26 1034.68V1032.68C920.658 1032.68 918.831 1032.14 917.634 1031.21L916.406 1032.79ZM923.26 1034.68C926.1 1034.68 928.445 1034.1 930.163 1032.8L928.957 1031.21C927.715 1032.15 925.86 1032.68 923.26 1032.68V1034.68ZM930.174 1032.79C931.866 1031.48 932.72 1029.68 932.72 1027.5H930.72C930.72 1029.09 930.134 1030.29 928.946 1031.21L930.174 1032.79ZM932.72 1027.5C932.72 1026.02 932.357 1024.7 931.572 1023.6C930.788 1022.51 929.642 1021.73 928.218 1021.22L927.542 1023.1C928.678 1023.51 929.452 1024.08 929.948 1024.77C930.443 1025.46 930.72 1026.35 930.72 1027.5H932.72ZM928.88 1022.16V1011.24H926.88V1022.16H928.88ZM927.661 1012.22C931.383 1013.05 934.253 1014.8 936.335 1017.44L937.905 1016.2C935.507 1013.16 932.217 1011.19 928.099 1010.27L927.661 1012.22ZM936.335 1017.44C938.415 1020.08 939.48 1023.35 939.48 1027.32H941.48C941.48 1022.97 940.305 1019.25 937.905 1016.2L936.335 1017.44ZM939.48 1027.32C939.48 1030.46 938.813 1033.21 937.503 1035.6L939.257 1036.56C940.747 1033.84 941.48 1030.75 941.48 1027.32H939.48ZM937.506 1035.6C936.2 1037.95 934.337 1039.8 931.895 1041.15L932.864 1042.9C935.623 1041.37 937.76 1039.26 939.254 1036.57L937.506 1035.6ZM931.906 1041.14C929.476 1042.45 926.604 1043.12 923.26 1043.12V1045.12C926.876 1045.12 930.084 1044.4 932.854 1042.9L931.906 1041.14ZM925.72 972.375H926.72V971.484L925.835 971.382L925.72 972.375ZM925.72 995.595H924.72V996.675L925.797 996.592L925.72 995.595ZM930.52 993.615L931.239 994.31L931.252 994.297L931.263 994.284L930.52 993.615ZM928.9 983.895H927.9V984.534L928.48 984.803L928.9 983.895ZM928.9 972.975L929.147 972.006L927.9 971.689V972.975H928.9ZM934.84 976.035L934.196 976.801L934.207 976.809L934.84 976.035ZM938.98 981.495L939.89 981.081L938.98 981.495ZM938.38 997.635L939.257 998.115L939.257 998.115L938.38 997.635ZM932.38 1003.64L931.895 1002.76L931.895 1002.76L932.38 1003.64ZM914.14 1003.7L913.655 1004.57L913.666 1004.58L914.14 1003.7ZM908.14 997.695L909.017 997.215L909.017 997.215L908.14 997.695ZM908.08 980.235L908.96 980.71L908.96 980.71L908.08 980.235ZM913.9 974.355L914.386 975.229L914.396 975.223L913.9 974.355ZM920.02 982.695H921.02V981.695H920.02V982.695ZM915.82 984.495L915.064 983.84L915.064 983.84L915.82 984.495ZM915.76 993.375L914.992 994.015L914.997 994.022L915.003 994.028L915.76 993.375ZM920.02 995.535L919.87 996.524L921.02 996.699V995.535H920.02ZM922.72 973.195C923.638 973.195 924.6 973.253 925.605 973.369L925.835 971.382C924.76 971.258 923.722 971.195 922.72 971.195V973.195ZM924.72 972.375V995.595H926.72V972.375H924.72ZM925.797 996.592C928.047 996.419 929.904 995.692 931.239 994.31L929.801 992.921C928.896 993.858 927.553 994.451 925.643 994.598L925.797 996.592ZM931.263 994.284C932.52 992.888 933.14 991.185 933.14 989.235H931.14C931.14 990.726 930.68 991.942 929.777 992.946L931.263 994.284ZM933.14 989.235C933.14 987.814 932.839 986.54 932.185 985.461C931.528 984.378 930.554 983.559 929.32 982.988L928.48 984.803C929.406 985.231 930.052 985.802 930.475 986.499C930.901 987.2 931.14 988.096 931.14 989.235H933.14ZM929.9 983.895V972.975H927.9V983.895H929.9ZM928.653 973.944C930.705 974.467 932.55 975.416 934.196 976.8L935.484 975.27C933.61 973.694 931.495 972.604 929.147 972.006L928.653 973.944ZM934.207 976.809C935.841 978.146 937.129 979.84 938.07 981.909L939.89 981.081C938.831 978.751 937.359 976.804 935.473 975.261L934.207 976.809ZM938.07 981.909C939.004 983.964 939.48 986.28 939.48 988.875H941.48C941.48 986.03 940.956 983.427 939.89 981.081L938.07 981.909ZM939.48 988.875C939.48 992.009 938.813 994.76 937.503 997.155L939.257 998.115C940.747 995.39 941.48 992.302 941.48 988.875H939.48ZM937.503 997.155C936.195 999.546 934.333 1001.41 931.895 1002.76L932.864 1004.51C935.627 1002.98 937.765 1000.84 939.257 998.115L937.503 997.155ZM931.895 1002.76C929.467 1004.11 926.6 1004.8 923.26 1004.8V1006.8C926.88 1006.8 930.093 1006.05 932.864 1004.51L931.895 1002.76ZM923.26 1004.8C919.916 1004.8 917.044 1004.12 914.614 1002.81L913.666 1004.58C916.436 1006.07 919.644 1006.8 923.26 1006.8V1004.8ZM914.624 1002.82C912.187 1001.47 910.325 999.606 909.017 997.215L907.263 998.175C908.755 1000.9 910.893 1003.04 913.655 1004.57L914.624 1002.82ZM909.017 997.215C907.708 994.822 907.04 992.051 907.04 988.875H905.04C905.04 992.339 905.772 995.449 907.263 998.175L909.017 997.215ZM907.04 988.875C907.04 985.779 907.689 983.066 908.96 980.71L907.2 979.76C905.751 982.444 905.04 985.491 905.04 988.875H907.04ZM908.96 980.71C910.229 978.359 912.031 976.537 914.386 975.229L913.414 973.481C910.729 974.973 908.651 977.071 907.2 979.76L908.96 980.71ZM914.396 975.223C916.743 973.882 919.506 973.195 922.72 973.195V971.195C919.214 971.195 916.097 971.948 913.404 973.487L914.396 975.223ZM920.02 981.695C918.005 981.695 916.316 982.396 915.064 983.84L916.576 985.15C917.404 984.195 918.515 983.695 920.02 983.695V981.695ZM915.064 983.84C913.846 985.246 913.26 986.989 913.26 988.995H915.26C915.26 987.401 915.714 986.144 916.576 985.15L915.064 983.84ZM913.26 988.995C913.26 990.924 913.827 992.617 914.992 994.015L916.528 992.735C915.693 991.733 915.26 990.506 915.26 988.995H913.26ZM915.003 994.028C916.19 995.406 917.847 996.216 919.87 996.524L920.17 994.546C918.513 994.294 917.33 993.665 916.517 992.722L915.003 994.028ZM921.02 995.535V982.695H919.02V995.535H921.02ZM931.3 931.408V930.408H930.3V931.408H931.3ZM940 931.408H941V930.408H940V931.408ZM937.3 945.328L938.049 945.99L938.056 945.982L937.3 945.328ZM915.04 948.448V947.448H914.04V948.448H915.04ZM915.04 952.528V953.528H916.04V952.528H915.04ZM906.52 952.528H905.52V953.528H906.52V952.528ZM906.52 948.448H907.52V947.448H906.52V948.448ZM898.36 948.448H897.36V949.448H898.36V948.448ZM898.36 938.188V937.188H897.36V938.188H898.36ZM906.52 938.188V939.188H907.52V938.188H906.52ZM906.52 931.468V930.468H905.52V931.468H906.52ZM915.04 931.468H916.04V930.468H915.04V931.468ZM915.04 938.188H914.04V939.188H915.04V938.188ZM930.64 937.468L931.377 938.143L931.377 938.143L930.64 937.468ZM931.3 932.408H940V930.408H931.3V932.408ZM939 931.408V936.628H941V931.408H939ZM939 936.628C939 940.192 938.139 942.83 936.544 944.673L938.056 945.982C940.061 943.665 941 940.503 941 936.628H939ZM936.551 944.665C934.977 946.444 932.334 947.448 928.36 947.448V949.448C932.626 949.448 935.943 948.371 938.049 945.99L936.551 944.665ZM928.36 947.448H915.04V949.448H928.36V947.448ZM914.04 948.448V952.528H916.04V948.448H914.04ZM915.04 951.528H906.52V953.528H915.04V951.528ZM907.52 952.528V948.448H905.52V952.528H907.52ZM906.52 947.448H898.36V949.448H906.52V947.448ZM899.36 948.448V938.188H897.36V948.448H899.36ZM898.36 939.188H906.52V937.188H898.36V939.188ZM907.52 938.188V931.468H905.52V938.188H907.52ZM906.52 932.468H915.04V930.468H906.52V932.468ZM914.04 931.468V938.188H916.04V931.468H914.04ZM915.04 939.188H928.48V937.188H915.04V939.188ZM928.48 939.188C929.611 939.188 930.666 938.919 931.377 938.143L929.903 936.792C929.734 936.976 929.349 937.188 928.48 937.188V939.188ZM931.377 938.143C932.072 937.385 932.3 936.272 932.3 935.068H930.3C930.3 936.103 930.088 936.59 929.903 936.792L931.377 938.143ZM932.3 935.068V931.408H930.3V935.068H932.3ZM910 893.873L910.672 894.614L910.677 894.608L910 893.873ZM940 890.393H941V889.393H940V890.393ZM940 900.593V901.593H941V900.593H940ZM916.6 902.333L917.283 903.063L917.283 903.063L916.6 902.333ZM916.6 911.693L917.283 910.962L917.283 910.962L916.6 911.693ZM940 913.433H941V912.433H940V913.433ZM940 923.693V924.693H941V923.693H940ZM895.6 923.693H894.6V924.693H895.6V923.693ZM895.6 913.433V912.433H894.6V913.433H895.6ZM911.02 913.433V914.433H914.182L911.595 912.614L911.02 913.433ZM907.48 909.173L906.582 909.612L906.582 909.612L907.48 909.173ZM907.16 903.113C907.16 899.52 908.345 896.722 910.672 894.614L909.328 893.132C906.535 895.663 905.16 899.025 905.16 903.113H907.16ZM910.677 894.608C912.963 892.504 916.174 891.393 920.44 891.393V889.393C915.826 889.393 912.077 890.601 909.323 893.137L910.677 894.608ZM920.44 891.393H940V889.393H920.44V891.393ZM939 890.393V900.593H941V890.393H939ZM940 899.593H921.82V901.593H940V899.593ZM921.82 899.593C919.409 899.593 917.395 900.22 915.917 901.602L917.283 903.063C918.285 902.126 919.751 901.593 921.82 901.593V899.593ZM915.917 901.602C914.443 902.981 913.74 904.823 913.74 907.013H915.74C915.74 905.283 916.277 904.004 917.283 903.063L915.917 901.602ZM913.74 907.013C913.74 909.203 914.443 911.044 915.917 912.423L917.283 910.962C916.277 910.021 915.74 908.743 915.74 907.013H913.74ZM915.917 912.423C917.395 913.806 919.409 914.433 921.82 914.433V912.433C919.751 912.433 918.285 911.9 917.283 910.962L915.917 912.423ZM921.82 914.433H940V912.433H921.82V914.433ZM939 913.433V923.693H941V913.433H939ZM940 922.693H895.6V924.693H940V922.693ZM896.6 923.693V913.433H894.6V923.693H896.6ZM895.6 914.433H911.02V912.433H895.6V914.433ZM911.595 912.614C910.267 911.682 909.192 910.398 908.378 908.733L906.582 909.612C907.528 911.547 908.813 913.104 910.445 914.251L911.595 912.614ZM908.378 908.733C907.573 907.086 907.16 905.218 907.16 903.113H905.16C905.16 905.487 905.627 907.66 906.582 909.612L908.378 908.733ZM925.72 849.883H926.72V848.992L925.835 848.889L925.72 849.883ZM925.72 873.103H924.72V874.183L925.797 874.1L925.72 873.103ZM930.52 871.123L931.239 871.818L931.252 871.805L931.263 871.792L930.52 871.123ZM928.9 861.403H927.9V862.042L928.48 862.31L928.9 861.403ZM928.9 850.483L929.147 849.514L927.9 849.196V850.483H928.9ZM934.84 853.543L934.196 854.308L934.207 854.317L934.84 853.543ZM938.98 859.003L939.89 858.589L938.98 859.003ZM938.38 875.143L939.257 875.623L939.257 875.623L938.38 875.143ZM932.38 881.143L931.895 880.268L931.895 880.268L932.38 881.143ZM914.14 881.203L913.655 882.078L913.666 882.083L914.14 881.203ZM908.14 875.203L909.017 874.723L909.017 874.723L908.14 875.203ZM908.08 857.743L908.96 858.218L908.96 858.218L908.08 857.743ZM913.9 851.863L914.386 852.737L914.396 852.731L913.9 851.863ZM920.02 860.203H921.02V859.203H920.02V860.203ZM915.82 862.003L915.064 861.348L915.064 861.348L915.82 862.003ZM915.76 870.883L914.992 871.523L914.997 871.53L915.003 871.536L915.76 870.883ZM920.02 873.043L919.87 874.032L921.02 874.207V873.043H920.02ZM922.72 850.703C923.638 850.703 924.6 850.76 925.605 850.876L925.835 848.889C924.76 848.765 923.722 848.703 922.72 848.703V850.703ZM924.72 849.883V873.103H926.72V849.883H924.72ZM925.797 874.1C928.047 873.927 929.904 873.2 931.239 871.818L929.801 870.428C928.896 871.366 927.553 871.959 925.643 872.106L925.797 874.1ZM931.263 871.792C932.52 870.396 933.14 868.692 933.14 866.743H931.14C931.14 868.233 930.68 869.45 929.777 870.454L931.263 871.792ZM933.14 866.743C933.14 865.322 932.839 864.048 932.185 862.969C931.528 861.886 930.554 861.067 929.32 860.495L928.48 862.31C929.406 862.739 930.052 863.31 930.475 864.007C930.901 864.708 931.14 865.604 931.14 866.743H933.14ZM929.9 861.403V850.483H927.9V861.403H929.9ZM928.653 851.452C930.705 851.974 932.55 852.924 934.196 854.308L935.484 852.778C933.61 851.202 931.495 850.111 929.147 849.514L928.653 851.452ZM934.207 854.317C935.841 855.654 937.129 857.347 938.07 859.417L939.89 858.589C938.831 856.258 937.359 854.312 935.473 852.769L934.207 854.317ZM938.07 859.417C939.004 861.471 939.48 863.788 939.48 866.383H941.48C941.48 863.538 940.956 860.934 939.89 858.589L938.07 859.417ZM939.48 866.383C939.48 869.516 938.813 872.268 937.503 874.663L939.257 875.623C940.747 872.898 941.48 869.809 941.48 866.383H939.48ZM937.503 874.663C936.195 877.054 934.333 878.918 931.895 880.268L932.864 882.018C935.627 880.488 937.765 878.352 939.257 875.623L937.503 874.663ZM931.895 880.268C929.467 881.613 926.6 882.303 923.26 882.303V884.303C926.88 884.303 930.093 883.553 932.864 882.018L931.895 880.268ZM923.26 882.303C919.916 882.303 917.044 881.631 914.614 880.322L913.666 882.083C916.436 883.575 919.644 884.303 923.26 884.303V882.303ZM914.624 880.328C912.187 878.978 910.325 877.114 909.017 874.723L907.263 875.683C908.755 878.412 910.893 880.548 913.655 882.078L914.624 880.328ZM909.017 874.723C907.708 872.329 907.04 869.559 907.04 866.383H905.04C905.04 869.847 905.772 872.956 907.263 875.683L909.017 874.723ZM907.04 866.383C907.04 863.287 907.689 860.574 908.96 858.218L907.2 857.268C905.751 859.952 905.04 862.999 905.04 866.383H907.04ZM908.96 858.218C910.229 855.867 912.031 854.045 914.386 852.737L913.414 850.989C910.729 852.481 908.651 854.579 907.2 857.268L908.96 858.218ZM914.396 852.731C916.743 851.39 919.506 850.703 922.72 850.703V848.703C919.214 848.703 916.097 849.456 913.404 850.995L914.396 852.731ZM920.02 859.203C918.005 859.203 916.316 859.903 915.064 861.348L916.576 862.658C917.404 861.702 918.515 861.203 920.02 861.203V859.203ZM915.064 861.348C913.846 862.754 913.26 864.497 913.26 866.503H915.26C915.26 864.909 915.714 863.652 916.576 862.658L915.064 861.348ZM913.26 866.503C913.26 868.432 913.827 870.125 914.992 871.523L916.528 870.243C915.693 869.241 915.26 868.014 915.26 866.503H913.26ZM915.003 871.536C916.19 872.913 917.847 873.724 919.87 874.032L920.17 872.054C918.513 871.802 917.33 871.172 916.517 870.23L915.003 871.536ZM921.02 873.043V860.203H919.02V873.043H921.02ZM906.52 779.515L906.781 778.55L905.52 778.209V779.515H906.52ZM940 788.575H941V787.81L940.261 787.61L940 788.575ZM940 799.915L940.236 800.887L941 800.701V799.915H940ZM918.28 805.195L918.044 804.224L918.036 806.165L918.28 805.195ZM940 810.655H941V809.876L940.244 809.686L940 810.655ZM940 821.935L940.263 822.9L941 822.699V821.935H940ZM906.52 831.055H905.52V832.364L906.783 832.02L906.52 831.055ZM906.52 820.795L906.326 819.814L905.52 819.974V820.795H906.52ZM930.46 816.055L930.654 817.036L930.689 815.082L930.46 816.055ZM906.52 810.415H905.52V811.207L906.291 811.389L906.52 810.415ZM906.52 799.555L906.287 798.583L905.52 798.766V799.555H906.52ZM930.34 793.855L930.573 794.828L930.533 792.874L930.34 793.855ZM906.52 789.175H905.52V789.998L906.327 790.157L906.52 789.175ZM906.259 780.481L939.739 789.541L940.261 787.61L906.781 778.55L906.259 780.481ZM939 788.575V799.915H941V788.575H939ZM939.764 798.944L918.044 804.224L918.516 806.167L940.236 800.887L939.764 798.944ZM918.036 806.165L939.756 811.625L940.244 809.686L918.524 804.226L918.036 806.165ZM939 810.655V821.935H941V810.655H939ZM939.737 820.971L906.257 830.091L906.783 832.02L940.263 822.9L939.737 820.971ZM907.52 831.055V820.795H905.52V831.055H907.52ZM906.714 821.776L930.654 817.036L930.266 815.074L906.326 819.814L906.714 821.776ZM930.689 815.082L906.749 809.442L906.291 811.389L930.231 817.029L930.689 815.082ZM907.52 810.415V799.555H905.52V810.415H907.52ZM906.753 800.528L930.573 794.828L930.107 792.883L906.287 798.583L906.753 800.528ZM930.533 792.874L906.713 788.194L906.327 790.157L930.147 794.837L930.533 792.874ZM907.52 789.175V779.515H905.52V789.175H907.52ZM938.38 767.243L939.26 767.717L939.263 767.711L938.38 767.243ZM932.38 773.423L932.875 774.292L932.885 774.286L932.38 773.423ZM914.2 773.363L914.705 772.499L914.699 772.496L914.2 773.363ZM908.14 767.123L909.023 766.654L909.023 766.654L908.14 767.123ZM908.14 749.363L909.023 749.831L909.023 749.831L908.14 749.363ZM914.2 743.123L914.699 743.989L914.705 743.986L914.2 743.123ZM932.38 743.183L931.871 744.044L931.875 744.046L932.38 743.183ZM938.38 749.483L937.494 749.946L937.497 749.951L938.38 749.483ZM929.44 753.383L928.743 754.1L928.748 754.105L928.753 754.11L929.44 753.383ZM917.08 753.323L917.756 754.06L917.761 754.055L917.767 754.05L917.08 753.323ZM917.08 763.223L917.766 762.495L917.756 762.486L917.08 763.223ZM929.44 763.283L930.104 764.03L930.11 764.025L930.116 764.02L929.44 763.283ZM939.48 758.363C939.48 761.496 938.813 764.292 937.497 766.774L939.263 767.711C940.747 764.913 941.48 761.79 941.48 758.363H939.48ZM937.5 766.769C936.188 769.204 934.32 771.13 931.875 772.559L932.885 774.286C935.64 772.675 937.772 770.482 939.26 767.717L937.5 766.769ZM931.885 772.554C929.459 773.935 926.595 774.643 923.26 774.643V776.643C926.885 776.643 930.101 775.871 932.875 774.292L931.885 772.554ZM923.26 774.643C919.972 774.643 917.131 773.918 914.705 772.499L913.695 774.226C916.469 775.848 919.668 776.643 923.26 776.643V774.643ZM914.699 772.496C912.219 771.068 910.334 769.125 909.023 766.654L907.257 767.591C908.746 770.401 910.901 772.617 913.701 774.229L914.699 772.496ZM909.023 766.654C907.707 764.172 907.04 761.376 907.04 758.243H905.04C905.04 761.67 905.773 764.793 907.257 767.591L909.023 766.654ZM907.04 758.243C907.04 755.11 907.707 752.313 909.023 749.831L907.257 748.894C905.773 751.692 905.04 754.816 905.04 758.243H907.04ZM909.023 749.831C910.334 747.361 912.219 745.417 914.699 743.989L913.701 742.256C910.901 743.868 908.746 746.085 907.257 748.894L909.023 749.831ZM914.705 743.986C917.131 742.568 919.972 741.843 923.26 741.843V739.843C919.668 739.843 916.469 740.638 913.695 742.259L914.705 743.986ZM923.26 741.843C926.543 741.843 929.403 742.585 931.871 744.044L932.889 742.322C930.077 740.66 926.857 739.843 923.26 739.843V741.843ZM931.875 744.046C934.312 745.471 936.18 747.432 937.494 749.946L939.266 749.02C937.78 746.174 935.648 743.935 932.885 742.319L931.875 744.046ZM937.497 749.951C938.813 752.433 939.48 755.23 939.48 758.363H941.48C941.48 754.936 940.747 751.812 939.263 749.014L937.497 749.951ZM932.6 758.363C932.6 756.124 931.764 754.202 930.127 752.656L928.753 754.11C929.996 755.283 930.6 756.681 930.6 758.363H932.6ZM930.137 752.666C928.455 751.03 926.111 750.283 923.26 750.283V752.283C925.769 752.283 927.545 752.935 928.743 754.1L930.137 752.666ZM923.26 750.283C920.417 750.283 918.076 751.006 916.393 752.596L917.767 754.05C918.964 752.919 920.743 752.283 923.26 752.283V750.283ZM916.404 752.586C914.757 754.096 913.92 756.004 913.92 758.243H915.92C915.92 756.562 916.523 755.19 917.756 754.06L916.404 752.586ZM913.92 758.243C913.92 760.515 914.752 762.445 916.404 763.96L917.756 762.486C916.528 761.36 915.92 759.97 915.92 758.243H913.92ZM916.394 763.95C918.044 765.506 920.391 766.203 923.26 766.203V764.203C920.689 764.203 918.916 763.579 917.766 762.495L916.394 763.95ZM923.26 766.203C926.089 766.203 928.421 765.527 930.104 764.03L928.776 762.535C927.579 763.599 925.791 764.203 923.26 764.203V766.203ZM930.116 764.02C931.763 762.51 932.6 760.602 932.6 758.363H930.6C930.6 760.044 929.997 761.416 928.764 762.546L930.116 764.02ZM912.1 723.14V724.14H915.464L912.646 722.302L912.1 723.14ZM907.78 718.64L908.646 718.139L908.642 718.132L908.637 718.125L907.78 718.64ZM906.16 712.64V711.64H905.16V712.64H906.16ZM917.02 712.64H918.02V711.64H917.02V712.64ZM918.7 721.22L919.464 720.575L919.458 720.568L919.453 720.561L918.7 721.22ZM940 723.14H941V722.14H940V723.14ZM940 733.4V734.4H941V733.4H940ZM906.52 733.4H905.52V734.4H906.52V733.4ZM906.52 723.14V722.14H905.52V723.14H906.52ZM912.646 722.302C910.93 721.183 909.603 719.796 908.646 718.139L906.914 719.14C908.037 721.084 909.59 722.696 911.554 723.977L912.646 722.302ZM908.637 718.125C907.655 716.488 907.16 714.667 907.16 712.64H905.16C905.16 715.012 905.745 717.191 906.923 719.154L908.637 718.125ZM906.16 713.64H917.02V711.64H906.16V713.64ZM916.02 712.64V715.46H918.02V712.64H916.02ZM916.02 715.46C916.02 718.143 916.604 720.343 917.947 721.878L919.453 720.561C918.556 719.536 918.02 717.896 918.02 715.46H916.02ZM917.936 721.864C919.3 723.481 921.592 724.14 924.46 724.14V722.14C921.808 722.14 920.26 721.518 919.464 720.575L917.936 721.864ZM924.46 724.14H940V722.14H924.46V724.14ZM939 723.14V733.4H941V723.14H939ZM940 732.4H906.52V734.4H940V732.4ZM907.52 733.4V723.14H905.52V733.4H907.52ZM906.52 724.14H912.1V722.14H906.52V724.14ZM895.6 695.476V694.476H894.6V695.476H895.6ZM940 695.476H941V694.476H940V695.476ZM940 705.736V706.736H941V705.736H940ZM895.6 705.736H894.6V706.736H895.6V705.736ZM895.6 696.476H940V694.476H895.6V696.476ZM939 695.476V705.736H941V695.476H939ZM940 704.736H895.6V706.736H940V704.736ZM896.6 705.736V695.476H894.6V705.736H896.6ZM914.14 686.16L913.687 687.052L913.698 687.057L914.14 686.16ZM908.14 680.82L908.988 680.29L908.988 680.29L908.14 680.82ZM907.42 667.32L908.31 667.775L908.314 667.767L907.42 667.32ZM911.14 663L911.695 663.832L914.443 662H911.14V663ZM895.6 663H894.6V664H895.6V663ZM895.6 652.74V651.74H894.6V652.74H895.6ZM940 652.74H941V651.74H940V652.74ZM940 663V664H941V663H940ZM935.2 663V662H931.59L934.686 663.858L935.2 663ZM939.04 667.14L938.158 667.611L938.162 667.619L939.04 667.14ZM938.38 680.82L939.221 681.361L939.228 681.35L938.38 680.82ZM932.32 686.16L932.756 687.06L932.765 687.056L932.773 687.052L932.32 686.16ZM917.2 665.16L917.887 665.887L917.897 665.877L917.2 665.16ZM917.2 675.54L916.503 676.257L916.503 676.257L917.2 675.54ZM929.32 675.54L929.997 676.276L930.008 676.267L930.017 676.257L929.32 675.54ZM929.32 665.16L928.623 665.877L928.633 665.887L929.32 665.16ZM923.2 687.08C919.885 687.08 917.021 686.464 914.582 685.263L913.698 687.057C916.459 688.417 919.635 689.08 923.2 689.08V687.08ZM914.593 685.269C912.138 684.022 910.282 682.36 908.988 680.29L907.292 681.35C908.798 683.76 910.942 685.658 913.687 687.052L914.593 685.269ZM908.988 680.29C907.692 678.217 907.04 675.902 907.04 673.32H905.04C905.04 676.259 905.788 678.944 907.292 681.35L908.988 680.29ZM907.04 673.32C907.04 671.264 907.469 669.422 908.31 667.775L906.53 666.865C905.531 668.818 905.04 670.976 905.04 673.32H907.04ZM908.314 667.767C909.164 666.068 910.293 664.767 911.695 663.832L910.585 662.168C908.867 663.314 907.516 664.893 906.526 666.873L908.314 667.767ZM911.14 662H895.6V664H911.14V662ZM896.6 663V652.74H894.6V663H896.6ZM895.6 653.74H940V651.74H895.6V653.74ZM939 652.74V663H941V652.74H939ZM940 662H935.2V664H940V662ZM934.686 663.858C936.116 664.716 937.275 665.955 938.158 667.611L939.922 666.67C938.885 664.725 937.484 663.205 935.714 662.143L934.686 663.858ZM938.162 667.619C939.029 669.208 939.48 671.098 939.48 673.32H941.48C941.48 670.823 940.971 668.592 939.918 666.661L938.162 667.619ZM939.48 673.32C939.48 675.902 938.828 678.217 937.532 680.29L939.228 681.35C940.732 678.944 941.48 676.259 941.48 673.32H939.48ZM937.539 680.279C936.204 682.356 934.324 684.021 931.867 685.269L932.773 687.052C935.516 685.659 937.676 683.764 939.221 681.361L937.539 680.279ZM931.884 685.26C929.401 686.464 926.515 687.08 923.2 687.08V689.08C926.765 689.08 929.959 688.416 932.756 687.06L931.884 685.26ZM923.26 662C920.505 662 918.212 662.781 916.503 664.444L917.897 665.877C919.148 664.66 920.895 664 923.26 664V662ZM916.513 664.434C914.833 666.023 913.98 668.006 913.98 670.32H915.98C915.98 668.555 916.607 667.098 917.887 665.887L916.513 664.434ZM913.98 670.32C913.98 672.634 914.832 674.631 916.503 676.257L917.897 674.824C916.608 673.569 915.98 672.087 915.98 670.32H913.98ZM916.503 676.257C918.177 677.885 920.454 678.64 923.2 678.64V676.64C920.826 676.64 919.103 675.996 917.897 674.823L916.503 676.257ZM923.2 678.64C925.948 678.64 928.251 677.884 929.997 676.276L928.643 674.805C927.349 675.996 925.572 676.64 923.2 676.64V678.64ZM930.017 676.257C931.688 674.631 932.54 672.634 932.54 670.32H930.54C930.54 672.087 929.912 673.569 928.623 674.824L930.017 676.257ZM932.54 670.32C932.54 668.006 931.687 666.023 930.007 664.434L928.633 665.887C929.913 667.098 930.54 668.555 930.54 670.32H932.54ZM930.017 664.444C928.308 662.781 926.015 662 923.26 662V664C925.625 664 927.372 664.66 928.623 665.877L930.017 664.444ZM911.26 618.343V619.343H914.793L911.784 617.491L911.26 618.343ZM907.48 614.203L906.598 614.673L906.598 614.673L907.48 614.203ZM908.14 600.523L908.988 601.053L908.988 601.053L908.14 600.523ZM914.14 595.243L914.582 596.14L914.593 596.134L914.14 595.243ZM932.32 595.243L931.873 596.137L931.878 596.14L932.32 595.243ZM938.38 600.523L939.228 599.993L939.221 599.982L938.38 600.523ZM939.1 614.203L939.978 614.682L939.982 614.674L939.986 614.666L939.1 614.203ZM935.32 618.343L934.78 617.501L931.907 619.343H935.32V618.343ZM940 618.343H941V617.343H940V618.343ZM940 628.603V629.603H941V628.603H940ZM895.6 628.603H894.6V629.603H895.6V628.603ZM895.6 618.343V617.343H894.6V618.343H895.6ZM917.2 605.863L917.887 606.589L917.897 606.58L917.907 606.57L917.2 605.863ZM917.2 616.303L916.503 617.02L916.513 617.029L917.2 616.303ZM929.32 616.303L930.007 617.029L930.017 617.019L929.32 616.303ZM929.32 605.863L930.017 605.146L930.008 605.137L929.32 605.863ZM911.784 617.491C910.392 616.634 909.249 615.394 908.362 613.732L906.598 614.673C907.631 616.612 909.008 618.131 910.736 619.194L911.784 617.491ZM908.362 613.732C907.49 612.096 907.04 610.201 907.04 608.023H905.04C905.04 610.484 905.55 612.71 906.598 614.673L908.362 613.732ZM907.04 608.023C907.04 605.441 907.692 603.127 908.988 601.053L907.292 599.993C905.788 602.399 905.04 605.084 905.04 608.023H907.04ZM908.988 601.053C910.28 598.986 912.132 597.346 914.582 596.14L913.698 594.346C910.948 595.7 908.8 597.58 907.292 599.993L908.988 601.053ZM914.593 596.134C917.029 594.897 919.889 594.263 923.2 594.263V592.263C919.631 592.263 916.451 592.948 913.687 594.351L914.593 596.134ZM923.2 594.263C926.51 594.263 929.393 594.897 931.873 596.137L932.767 594.348C929.967 592.948 926.77 592.263 923.2 592.263V594.263ZM931.878 596.14C934.33 597.347 936.206 598.99 937.539 601.064L939.221 599.982C937.674 597.576 935.51 595.699 932.762 594.346L931.878 596.14ZM937.532 601.053C938.828 603.127 939.48 605.441 939.48 608.023H941.48C941.48 605.084 940.732 602.399 939.228 599.993L937.532 601.053ZM939.48 608.023C939.48 610.252 939.046 612.147 938.214 613.739L939.986 614.666C940.994 612.738 941.48 610.514 941.48 608.023H939.48ZM938.222 613.724C937.336 615.349 936.187 616.599 934.78 617.501L935.86 619.185C937.573 618.087 938.944 616.577 939.978 614.682L938.222 613.724ZM935.32 619.343H940V617.343H935.32V619.343ZM939 618.343V628.603H941V618.343H939ZM940 627.603H895.6V629.603H940V627.603ZM896.6 628.603V618.343H894.6V628.603H896.6ZM895.6 619.343H911.26V617.343H895.6V619.343ZM923.2 602.703C920.447 602.703 918.166 603.483 916.493 605.156L917.907 606.57C919.114 605.363 920.833 604.703 923.2 604.703V602.703ZM916.513 605.136C914.828 606.73 913.98 608.734 913.98 611.083H915.98C915.98 609.271 916.612 607.796 917.887 606.589L916.513 605.136ZM913.98 611.083C913.98 613.396 914.832 615.394 916.503 617.019L917.897 615.586C916.608 614.332 915.98 612.849 915.98 611.083H913.98ZM916.513 617.029C918.223 618.647 920.513 619.403 923.26 619.403V617.403C920.887 617.403 919.137 616.759 917.887 615.576L916.513 617.029ZM923.26 619.403C926.007 619.403 928.297 618.647 930.007 617.029L928.633 615.576C927.383 616.759 925.633 617.403 923.26 617.403V619.403ZM930.017 617.019C931.688 615.394 932.54 613.396 932.54 611.083H930.54C930.54 612.849 929.912 614.332 928.623 615.586L930.017 617.019ZM932.54 611.083C932.54 608.769 931.688 606.772 930.017 605.146L928.623 606.579C929.912 607.834 930.54 609.316 930.54 611.083H932.54ZM930.008 605.137C928.263 603.483 925.956 602.703 923.2 602.703V604.703C925.564 604.703 927.337 605.362 928.632 606.589L930.008 605.137ZM906.52 551.68L906.911 550.76L905.52 550.168V551.68H906.52ZM955.9 572.68H956.9V572.019L956.291 571.76L955.9 572.68ZM955.9 583.72L955.489 584.632L956.9 585.268V583.72H955.9ZM938.86 576.04L939.271 575.128L938.874 574.949L938.472 575.118L938.86 576.04ZM906.52 589.66H905.52V591.166L906.908 590.582L906.52 589.66ZM906.52 578.2L906.173 577.262L905.52 577.504V578.2H906.52ZM927.46 570.46L927.807 571.398L930.354 570.456L927.804 569.521L927.46 570.46ZM906.52 562.78H905.52V563.478L906.176 563.719L906.52 562.78ZM906.129 552.6L955.509 573.6L956.291 571.76L906.911 550.76L906.129 552.6ZM954.9 572.68V583.72H956.9V572.68H954.9ZM956.311 582.808L939.271 575.128L938.449 576.952L955.489 584.632L956.311 582.808ZM938.472 575.118L906.132 588.738L906.908 590.582L939.248 576.962L938.472 575.118ZM907.52 589.66V578.2H905.52V589.66H907.52ZM906.867 579.138L927.807 571.398L927.113 569.522L906.173 577.262L906.867 579.138ZM927.804 569.521L906.864 561.841L906.176 563.719L927.116 571.399L927.804 569.521ZM907.52 562.78V551.68H905.52V562.78H907.52ZM909.94 478.635L910.636 479.354L910.641 479.348L909.94 478.635ZM940 474.915H941V473.915H940V474.915ZM940 485.115V486.115H941V485.115H940ZM916.84 486.855L917.522 487.586L917.535 487.574L917.547 487.562L916.84 486.855ZM916.84 496.275L916.145 496.994L916.145 496.994L916.84 496.275ZM940 497.955H941V496.955H940V497.955ZM940 508.155V509.155H941V508.155H940ZM916.84 509.895L917.522 510.626L917.535 510.614L917.547 510.602L916.84 509.895ZM916.84 519.315L916.145 520.034L916.145 520.034L916.84 519.315ZM940 520.995H941V519.995H940V520.995ZM940 531.255V532.255H941V531.255H940ZM906.52 531.255H905.52V532.255H906.52V531.255ZM906.52 520.995V519.995H905.52V520.995H906.52ZM910.72 520.995V521.995H913.743L911.316 520.192L910.72 520.995ZM907.42 516.915L908.323 516.485L908.319 516.476L908.314 516.468L907.42 516.915ZM907.78 504.495L908.656 504.978L908.66 504.97L907.78 504.495ZM912.4 499.815L912.889 500.688L914.356 499.866L912.933 498.969L912.4 499.815ZM907.9 495.075L907.035 495.577L907.9 495.075ZM907.16 488.535C907.16 484.592 908.346 481.57 910.636 479.354L909.244 477.917C906.494 480.58 905.16 484.159 905.16 488.535H907.16ZM910.641 479.348C912.928 477.098 916.149 475.915 920.44 475.915V473.915C915.771 473.915 911.992 475.212 909.239 477.922L910.641 479.348ZM920.44 475.915H940V473.915H920.44V475.915ZM939 474.915V485.115H941V474.915H939ZM940 484.115H921.82V486.115H940V484.115ZM921.82 484.115C919.482 484.115 917.534 484.747 916.133 486.148L917.547 487.562C918.466 486.643 919.838 486.115 921.82 486.115V484.115ZM916.158 486.124C914.712 487.473 914.04 489.323 914.04 491.535H916.04C916.04 489.747 916.568 488.477 917.522 487.586L916.158 486.124ZM914.04 491.535C914.04 493.748 914.712 495.609 916.145 496.994L917.535 495.556C916.568 494.621 916.04 493.322 916.04 491.535H914.04ZM916.145 496.994C917.548 498.349 919.491 498.955 921.82 498.955V496.955C919.829 496.955 918.452 496.441 917.535 495.556L916.145 496.994ZM921.82 498.955H940V496.955H921.82V498.955ZM939 497.955V508.155H941V497.955H939ZM940 507.155H921.82V509.155H940V507.155ZM921.82 507.155C919.482 507.155 917.534 507.787 916.133 509.188L917.547 510.602C918.466 509.683 919.838 509.155 921.82 509.155V507.155ZM916.158 509.164C914.712 510.513 914.04 512.363 914.04 514.575H916.04C916.04 512.787 916.568 511.517 917.522 510.626L916.158 509.164ZM914.04 514.575C914.04 516.788 914.712 518.649 916.145 520.034L917.535 518.596C916.568 517.661 916.04 516.362 916.04 514.575H914.04ZM916.145 520.034C917.548 521.389 919.491 521.995 921.82 521.995V519.995C919.829 519.995 918.452 519.481 917.535 518.596L916.145 520.034ZM921.82 521.995H940V519.995H921.82V521.995ZM939 520.995V531.255H941V520.995H939ZM940 530.255H906.52V532.255H940V530.255ZM907.52 531.255V520.995H905.52V531.255H907.52ZM906.52 521.995H910.72V519.995H906.52V521.995ZM911.316 520.192C910.056 519.256 909.057 518.028 908.323 516.485L906.517 517.345C907.383 519.162 908.584 520.654 910.124 521.798L911.316 520.192ZM908.314 516.468C907.552 514.944 907.16 513.2 907.16 511.215H905.16C905.16 513.47 905.608 515.526 906.526 517.362L908.314 516.468ZM907.16 511.215C907.16 508.842 907.667 506.772 908.656 504.978L906.904 504.012C905.733 506.138 905.16 508.548 905.16 511.215H907.16ZM908.66 504.97C909.649 503.139 911.053 501.716 912.889 500.688L911.911 498.943C909.747 500.154 908.071 501.852 906.9 504.02L908.66 504.97ZM912.933 498.969C911.239 497.901 909.849 496.443 908.765 494.573L907.035 495.577C908.271 497.708 909.881 499.409 911.867 500.661L912.933 498.969ZM908.765 494.573C907.695 492.729 907.16 490.723 907.16 488.535H905.16C905.16 491.067 905.785 493.421 907.035 495.577L908.765 494.573ZM938.38 459.379L939.26 459.854L939.263 459.848L938.38 459.379ZM932.38 465.559L932.875 466.429L932.885 466.423L932.38 465.559ZM914.2 465.499L914.705 464.636L914.699 464.633L914.2 465.499ZM908.14 459.259L909.023 458.791L909.023 458.791L908.14 459.259ZM908.14 441.499L909.023 441.968L909.023 441.968L908.14 441.499ZM914.2 435.259L914.699 436.126L914.705 436.123L914.2 435.259ZM932.38 435.319L931.871 436.18L931.875 436.183L932.38 435.319ZM938.38 441.619L937.494 442.082L937.497 442.088L938.38 441.619ZM929.44 445.519L928.743 446.236L928.748 446.242L928.753 446.246L929.44 445.519ZM917.08 445.459L917.756 446.197L917.761 446.192L917.767 446.186L917.08 445.459ZM917.08 455.359L917.766 454.632L917.756 454.622L917.08 455.359ZM929.44 455.419L930.104 456.167L930.11 456.162L930.116 456.157L929.44 455.419ZM939.48 450.499C939.48 453.632 938.813 456.429 937.497 458.911L939.263 459.848C940.747 457.05 941.48 453.927 941.48 450.499H939.48ZM937.5 458.905C936.188 461.34 934.32 463.267 931.875 464.696L932.885 466.423C935.64 464.812 937.772 462.619 939.26 459.854L937.5 458.905ZM931.885 464.69C929.459 466.071 926.595 466.779 923.26 466.779V468.779C926.885 468.779 930.101 468.007 932.875 466.429L931.885 464.69ZM923.26 466.779C919.972 466.779 917.131 466.055 914.705 464.636L913.695 466.363C916.469 467.984 919.668 468.779 923.26 468.779V466.779ZM914.699 464.633C912.219 463.205 910.334 461.261 909.023 458.791L907.257 459.728C908.746 462.538 910.901 464.754 913.701 466.366L914.699 464.633ZM909.023 458.791C907.707 456.309 907.04 453.512 907.04 450.379H905.04C905.04 453.807 905.773 456.93 907.257 459.728L909.023 458.791ZM907.04 450.379C907.04 447.247 907.707 444.45 909.023 441.968L907.257 441.031C905.773 443.829 905.04 446.952 905.04 450.379H907.04ZM909.023 441.968C910.334 439.498 912.219 437.554 914.699 436.126L913.701 434.393C910.901 436.005 908.746 438.221 907.257 441.031L909.023 441.968ZM914.705 436.123C917.131 434.704 919.972 433.979 923.26 433.979V431.979C919.668 431.979 916.469 432.775 913.695 434.396L914.705 436.123ZM923.26 433.979C926.543 433.979 929.403 434.722 931.871 436.18L932.889 434.459C930.077 432.797 926.857 431.979 923.26 431.979V433.979ZM931.875 436.183C934.312 437.607 936.18 439.568 937.494 442.082L939.266 441.156C937.78 438.311 935.648 436.071 932.885 434.456L931.875 436.183ZM937.497 442.088C938.813 444.57 939.48 447.367 939.48 450.499H941.48C941.48 447.072 940.747 443.949 939.263 441.151L937.497 442.088ZM932.6 450.499C932.6 448.261 931.764 446.339 930.127 444.792L928.753 446.246C929.996 447.42 930.6 448.818 930.6 450.499H932.6ZM930.137 444.802C928.455 443.167 926.111 442.419 923.26 442.419V444.419C925.769 444.419 927.545 445.072 928.743 446.236L930.137 444.802ZM923.26 442.419C920.417 442.419 918.076 443.143 916.393 444.732L917.767 446.186C918.964 445.056 920.743 444.419 923.26 444.419V442.419ZM916.404 444.722C914.757 446.232 913.92 448.14 913.92 450.379H915.92C915.92 448.699 916.523 447.326 917.756 446.197L916.404 444.722ZM913.92 450.379C913.92 452.652 914.752 454.582 916.404 456.097L917.756 454.622C916.528 453.497 915.92 452.107 915.92 450.379H913.92ZM916.394 456.087C918.044 457.643 920.391 458.339 923.26 458.339V456.339C920.689 456.339 918.916 455.716 917.766 454.632L916.394 456.087ZM923.26 458.339C926.089 458.339 928.421 457.664 930.104 456.167L928.776 454.672C927.579 455.735 925.791 456.339 923.26 456.339V458.339ZM930.116 456.157C931.763 454.646 932.6 452.739 932.6 450.499H930.6C930.6 452.18 929.997 453.552 928.764 454.682L930.116 456.157ZM910 395.776L910.672 396.517L910.678 396.512L910.684 396.506L910 395.776ZM940 392.236H941V391.236H940V392.236ZM940 402.436V403.436H941V402.436H940ZM916.6 404.176L917.283 404.907L917.283 404.907L916.6 404.176ZM916.6 413.536L917.283 412.806L917.283 412.806L916.6 413.536ZM940 415.276H941V414.276H940V415.276ZM940 425.536V426.536H941V425.536H940ZM906.52 425.536H905.52V426.536H906.52V425.536ZM906.52 415.276V414.276H905.52V415.276H906.52ZM910.96 415.276V416.276H914.122L911.535 414.458L910.96 415.276ZM907.48 411.076L908.382 410.646L908.379 410.637L908.374 410.629L907.48 411.076ZM907.16 405.136C907.16 401.457 908.35 398.621 910.672 396.517L909.328 395.035C906.53 397.571 905.16 400.976 905.16 405.136H907.16ZM910.684 396.506C912.97 394.365 916.179 393.236 920.44 393.236V391.236C915.821 391.236 912.07 392.468 909.316 395.046L910.684 396.506ZM920.44 393.236H940V391.236H920.44V393.236ZM939 392.236V402.436H941V392.236H939ZM940 401.436H921.82V403.436H940V401.436ZM921.82 401.436C919.409 401.436 917.395 402.063 915.917 403.446L917.283 404.907C918.285 403.969 919.751 403.436 921.82 403.436V401.436ZM915.917 403.446C914.443 404.825 913.74 406.666 913.74 408.856H915.74C915.74 407.126 916.277 405.848 917.283 404.907L915.917 403.446ZM913.74 408.856C913.74 411.046 914.443 412.888 915.917 414.267L917.283 412.806C916.277 411.865 915.74 410.586 915.74 408.856H913.74ZM915.917 414.267C917.395 415.649 919.409 416.276 921.82 416.276V414.276C919.751 414.276 918.285 413.743 917.283 412.806L915.917 414.267ZM921.82 416.276H940V414.276H921.82V416.276ZM939 415.276V425.536H941V415.276H939ZM940 424.536H906.52V426.536H940V424.536ZM907.52 425.536V415.276H905.52V425.536H907.52ZM906.52 416.276H910.96V414.276H906.52V416.276ZM911.535 414.458C910.207 413.525 909.154 412.263 908.382 410.646L906.578 411.507C907.486 413.41 908.753 414.948 910.385 416.095L911.535 414.458ZM908.374 410.629C907.572 409.024 907.16 407.2 907.16 405.136H905.16C905.16 407.473 905.628 409.609 906.586 411.524L908.374 410.629ZM925.72 351.727H926.72V350.835L925.835 350.733L925.72 351.727ZM925.72 374.947H924.72V376.027L925.797 375.944L925.72 374.947ZM930.52 372.967L931.239 373.661L931.252 373.649L931.263 373.636L930.52 372.967ZM928.9 363.247H927.9V363.886L928.48 364.154L928.9 363.247ZM928.9 352.327L929.147 351.358L927.9 351.04V352.327H928.9ZM934.84 355.387L934.196 356.152L934.207 356.161L934.84 355.387ZM938.98 360.847L939.89 360.433L938.98 360.847ZM938.38 376.987L939.257 377.466L939.257 377.466L938.38 376.987ZM932.38 382.987L931.895 382.112L931.895 382.112L932.38 382.987ZM914.14 383.047L913.655 383.922L913.666 383.927L914.14 383.047ZM908.14 377.047L909.017 376.567L909.017 376.567L908.14 377.047ZM908.08 359.587L908.96 360.062L908.96 360.062L908.08 359.587ZM913.9 353.707L914.386 354.581L914.396 354.575L913.9 353.707ZM920.02 362.047H921.02V361.047H920.02V362.047ZM915.82 363.847L915.064 363.192L915.064 363.192L915.82 363.847ZM915.76 372.727L914.992 373.367L914.997 373.373L915.003 373.38L915.76 372.727ZM920.02 374.887L919.87 375.875L921.02 376.05V374.887H920.02ZM922.72 352.547C923.638 352.547 924.6 352.604 925.605 352.72L925.835 350.733C924.76 350.609 923.722 350.547 922.72 350.547V352.547ZM924.72 351.727V374.947H926.72V351.727H924.72ZM925.797 375.944C928.047 375.771 929.904 375.044 931.239 373.661L929.801 372.272C928.896 373.209 927.553 373.803 925.643 373.95L925.797 375.944ZM931.263 373.636C932.52 372.239 933.14 370.536 933.14 368.587H931.14C931.14 370.077 930.68 371.294 929.777 372.298L931.263 373.636ZM933.14 368.587C933.14 367.166 932.839 365.892 932.185 364.813C931.528 363.73 930.554 362.91 929.32 362.339L928.48 364.154C929.406 364.583 930.052 365.154 930.475 365.85C930.901 366.552 931.14 367.448 931.14 368.587H933.14ZM929.9 363.247V352.327H927.9V363.247H929.9ZM928.653 353.296C930.705 353.818 932.55 354.768 934.196 356.152L935.484 354.621C933.61 353.046 931.495 351.955 929.147 351.358L928.653 353.296ZM934.207 356.161C935.841 357.497 937.129 359.191 938.07 361.26L939.89 360.433C938.831 358.102 937.359 356.156 935.473 354.613L934.207 356.161ZM938.07 361.26C939.004 363.315 939.48 365.631 939.48 368.227H941.48C941.48 365.382 940.956 362.778 939.89 360.433L938.07 361.26ZM939.48 368.227C939.48 371.36 938.813 374.111 937.503 376.507L939.257 377.466C940.747 374.742 941.48 371.653 941.48 368.227H939.48ZM937.503 376.507C936.195 378.897 934.333 380.762 931.895 382.112L932.864 383.861C935.627 382.331 937.765 380.196 939.257 377.466L937.503 376.507ZM931.895 382.112C929.467 383.457 926.6 384.147 923.26 384.147V386.147C926.88 386.147 930.093 385.397 932.864 383.861L931.895 382.112ZM923.26 384.147C919.916 384.147 917.044 383.475 914.614 382.166L913.666 383.927C916.436 385.419 919.644 386.147 923.26 386.147V384.147ZM914.624 382.172C912.187 380.822 910.325 378.957 909.017 376.567L907.263 377.526C908.755 380.256 910.893 382.391 913.655 383.921L914.624 382.172ZM909.017 376.567C907.708 374.173 907.04 371.402 907.04 368.227H905.04C905.04 371.691 905.772 374.8 907.263 377.526L909.017 376.567ZM907.04 368.227C907.04 365.13 907.689 362.417 908.96 360.062L907.2 359.112C905.751 361.796 905.04 364.843 905.04 368.227H907.04ZM908.96 360.062C910.229 357.711 912.031 355.889 914.386 354.581L913.414 352.833C910.729 354.325 908.651 356.423 907.2 359.112L908.96 360.062ZM914.396 354.575C916.743 353.234 919.506 352.547 922.72 352.547V350.547C919.214 350.547 916.097 351.299 913.404 352.838L914.396 354.575ZM920.02 361.047C918.005 361.047 916.316 361.747 915.064 363.192L916.576 364.502C917.404 363.546 918.515 363.047 920.02 363.047V361.047ZM915.064 363.192C913.846 364.598 913.26 366.34 913.26 368.347H915.26C915.26 366.753 915.714 365.495 916.576 364.502L915.064 363.192ZM913.26 368.347C913.26 370.275 913.827 371.969 914.992 373.367L916.528 372.086C915.693 371.085 915.26 369.858 915.26 368.347H913.26ZM915.003 373.38C916.19 374.757 917.847 375.567 919.87 375.875L920.17 373.898C918.513 373.646 917.33 373.016 916.517 372.074L915.003 373.38ZM921.02 374.887V362.047H919.02V374.887H921.02ZM906.52 309.934L906.911 309.014L905.52 308.422V309.934H906.52ZM955.9 330.934H956.9V330.273L956.291 330.014L955.9 330.934ZM955.9 341.974L955.489 342.886L956.9 343.522V341.974H955.9ZM938.86 334.294L939.271 333.382L938.874 333.203L938.472 333.372L938.86 334.294ZM906.52 347.914H905.52V349.42L906.908 348.836L906.52 347.914ZM906.52 336.454L906.173 335.516L905.52 335.758V336.454H906.52ZM927.46 328.714L927.807 329.652L930.354 328.71L927.804 327.775L927.46 328.714ZM906.52 321.034H905.52V321.732L906.176 321.973L906.52 321.034ZM906.129 310.854L955.509 331.854L956.291 330.014L906.911 309.014L906.129 310.854ZM954.9 330.934V341.974H956.9V330.934H954.9ZM956.311 341.062L939.271 333.382L938.449 335.206L955.489 342.886L956.311 341.062ZM938.472 333.372L906.132 346.992L906.908 348.836L939.248 335.216L938.472 333.372ZM907.52 347.914V336.454H905.52V347.914H907.52ZM906.867 337.392L927.807 329.652L927.113 327.776L906.173 335.516L906.867 337.392ZM927.804 327.775L906.864 320.095L906.176 321.973L927.116 329.653L927.804 327.775ZM907.52 321.034V309.934H905.52V321.034H907.52ZM931.3 270.849V269.849H930.3V270.849H931.3ZM940 270.849H941V269.849H940V270.849ZM937.3 284.769L938.049 285.432L938.056 285.423L937.3 284.769ZM915.04 287.889V286.889H914.04V287.889H915.04ZM915.04 291.969V292.969H916.04V291.969H915.04ZM906.52 291.969H905.52V292.969H906.52V291.969ZM906.52 287.889H907.52V286.889H906.52V287.889ZM898.36 287.889H897.36V288.889H898.36V287.889ZM898.36 277.629V276.629H897.36V277.629H898.36ZM906.52 277.629V278.629H907.52V277.629H906.52ZM906.52 270.909V269.909H905.52V270.909H906.52ZM915.04 270.909H916.04V269.909H915.04V270.909ZM915.04 277.629H914.04V278.629H915.04V277.629ZM930.64 276.909L931.377 277.585L931.377 277.585L930.64 276.909ZM931.3 271.849H940V269.849H931.3V271.849ZM939 270.849V276.069H941V270.849H939ZM939 276.069C939 279.634 938.139 282.272 936.544 284.115L938.056 285.423C940.061 283.106 941 279.944 941 276.069H939ZM936.551 284.106C934.977 285.885 932.334 286.889 928.36 286.889V288.889C932.626 288.889 935.943 287.813 938.049 285.432L936.551 284.106ZM928.36 286.889H915.04V288.889H928.36V286.889ZM914.04 287.889V291.969H916.04V287.889H914.04ZM915.04 290.969H906.52V292.969H915.04V290.969ZM907.52 291.969V287.889H905.52V291.969H907.52ZM906.52 286.889H898.36V288.889H906.52V286.889ZM899.36 287.889V277.629H897.36V287.889H899.36ZM898.36 278.629H906.52V276.629H898.36V278.629ZM907.52 277.629V270.909H905.52V277.629H907.52ZM906.52 271.909H915.04V269.909H906.52V271.909ZM914.04 270.909V277.629H916.04V270.909H914.04ZM915.04 278.629H928.48V276.629H915.04V278.629ZM928.48 278.629C929.611 278.629 930.666 278.36 931.377 277.585L929.903 276.233C929.734 276.418 929.349 276.629 928.48 276.629V278.629ZM931.377 277.585C932.072 276.827 932.3 275.713 932.3 274.509H930.3C930.3 275.545 930.088 276.031 929.903 276.233L931.377 277.585ZM932.3 274.509V270.849H930.3V274.509H932.3ZM912.1 252.874V253.874H915.464L912.646 252.036L912.1 252.874ZM907.78 248.374L908.646 247.874L908.642 247.867L908.637 247.86L907.78 248.374ZM906.16 242.374V241.374H905.16V242.374H906.16ZM917.02 242.374H918.02V241.374H917.02V242.374ZM918.7 250.954L919.464 250.309L919.458 250.302L919.453 250.295L918.7 250.954ZM940 252.874H941V251.874H940V252.874ZM940 263.134V264.134H941V263.134H940ZM906.52 263.134H905.52V264.134H906.52V263.134ZM906.52 252.874V251.874H905.52V252.874H906.52ZM912.646 252.036C910.93 250.917 909.603 249.53 908.646 247.874L906.914 248.874C908.037 250.818 909.59 252.431 911.554 253.712L912.646 252.036ZM908.637 247.86C907.655 246.223 907.16 244.402 907.16 242.374H905.16C905.16 244.746 905.745 246.925 906.923 248.888L908.637 247.86ZM906.16 243.374H917.02V241.374H906.16V243.374ZM916.02 242.374V245.194H918.02V242.374H916.02ZM916.02 245.194C916.02 247.878 916.604 250.077 917.947 251.613L919.453 250.295C918.556 249.271 918.02 247.63 918.02 245.194H916.02ZM917.936 251.599C919.3 253.216 921.592 253.874 924.46 253.874V251.874C921.808 251.874 920.26 251.252 919.464 250.309L917.936 251.599ZM924.46 253.874H940V251.874H924.46V253.874ZM939 252.874V263.134H941V252.874H939ZM940 262.134H906.52V264.134H940V262.134ZM907.52 263.134V252.874H905.52V263.134H907.52ZM906.52 253.874H912.1V251.874H906.52V253.874ZM914.14 235.59L913.687 236.482L913.698 236.487L914.14 235.59ZM908.14 230.25L908.988 229.72L908.988 229.72L908.14 230.25ZM907.48 216.57L908.358 217.049L908.362 217.041L907.48 216.57ZM911.26 212.43L911.784 213.282L914.793 211.43H911.26V212.43ZM906.52 212.43H905.52V213.43H906.52V212.43ZM906.52 202.17V201.17H905.52V202.17H906.52ZM940 202.17H941V201.17H940V202.17ZM940 212.43V213.43H941V212.43H940ZM935.26 212.43V211.43H931.847L934.72 213.272L935.26 212.43ZM939.04 216.63L938.158 217.101L938.162 217.109L939.04 216.63ZM938.38 230.25L939.221 230.791L939.228 230.78L938.38 230.25ZM932.32 235.59L932.756 236.49L932.765 236.486L932.773 236.482L932.32 235.59ZM917.2 214.59L917.887 215.316L917.897 215.307L917.2 214.59ZM917.2 224.97L916.503 225.687L916.503 225.687L917.2 224.97ZM929.32 224.97L929.997 225.705L930.008 225.696L930.017 225.687L929.32 224.97ZM929.32 214.59L928.623 215.307L928.633 215.316L929.32 214.59ZM923.2 236.51C919.885 236.51 917.021 235.894 914.582 234.693L913.698 236.487C916.459 237.846 919.635 238.51 923.2 238.51V236.51ZM914.593 234.698C912.138 233.452 910.282 231.79 908.988 229.72L907.292 230.78C908.798 233.19 910.942 235.088 913.687 236.482L914.593 234.698ZM908.988 229.72C907.692 227.646 907.04 225.331 907.04 222.75H905.04C905.04 225.689 905.788 228.374 907.292 230.78L908.988 229.72ZM907.04 222.75C907.04 220.528 907.491 218.638 908.358 217.049L906.602 216.091C905.549 218.022 905.04 220.252 905.04 222.75H907.04ZM908.362 217.041C909.249 215.379 910.392 214.138 911.784 213.282L910.736 211.578C909.008 212.642 907.631 214.161 906.598 216.099L908.362 217.041ZM911.26 211.43H906.52V213.43H911.26V211.43ZM907.52 212.43V202.17H905.52V212.43H907.52ZM906.52 203.17H940V201.17H906.52V203.17ZM939 202.17V212.43H941V202.17H939ZM940 211.43H935.26V213.43H940V211.43ZM934.72 213.272C936.122 214.17 937.27 215.436 938.158 217.101L939.922 216.159C938.89 214.224 937.518 212.69 935.8 211.588L934.72 213.272ZM938.162 217.109C939.029 218.698 939.48 220.588 939.48 222.81H941.48C941.48 220.312 940.971 218.082 939.918 216.151L938.162 217.109ZM939.48 222.81C939.48 225.348 938.83 227.644 937.532 229.72L939.228 230.78C940.73 228.376 941.48 225.711 941.48 222.81H939.48ZM937.539 229.709C936.204 231.786 934.324 233.451 931.867 234.698L932.773 236.482C935.516 235.089 937.676 233.194 939.221 230.791L937.539 229.709ZM931.884 234.69C929.401 235.894 926.515 236.51 923.2 236.51V238.51C926.765 238.51 929.959 237.846 932.756 236.49L931.884 234.69ZM923.26 211.43C920.505 211.43 918.212 212.21 916.503 213.873L917.897 215.307C919.148 214.09 920.895 213.43 923.26 213.43V211.43ZM916.513 213.863C914.833 215.453 913.98 217.436 913.98 219.75H915.98C915.98 217.984 916.607 216.527 917.887 215.316L916.513 213.863ZM913.98 219.75C913.98 222.064 914.832 224.061 916.503 225.687L917.897 224.253C916.608 222.999 915.98 221.516 915.98 219.75H913.98ZM916.503 225.687C918.177 227.315 920.454 228.07 923.2 228.07V226.07C920.826 226.07 919.103 225.425 917.897 224.253L916.503 225.687ZM923.2 228.07C925.948 228.07 928.251 227.314 929.997 225.705L928.643 224.234C927.349 225.426 925.572 226.07 923.2 226.07V228.07ZM930.017 225.687C931.688 224.061 932.54 222.064 932.54 219.75H930.54C930.54 221.516 929.912 222.999 928.623 224.253L930.017 225.687ZM932.54 219.75C932.54 217.436 931.687 215.453 930.007 213.863L928.633 215.316C929.913 216.527 930.54 217.984 930.54 219.75H932.54ZM930.017 213.873C928.308 212.21 926.015 211.43 923.26 211.43V213.43C925.625 213.43 927.372 214.09 928.623 215.307L930.017 213.873ZM910 162.987L910.672 163.728L910.678 163.723L910.684 163.717L910 162.987ZM940 159.447H941V158.447H940V159.447ZM940 169.647V170.647H941V169.647H940ZM916.6 171.387L917.283 172.118L917.283 172.118L916.6 171.387ZM916.6 180.747L917.283 180.017L917.283 180.017L916.6 180.747ZM940 182.487H941V181.487H940V182.487ZM940 192.747V193.747H941V192.747H940ZM906.52 192.747H905.52V193.747H906.52V192.747ZM906.52 182.487V181.487H905.52V182.487H906.52ZM910.96 182.487V183.487H914.122L911.535 181.669L910.96 182.487ZM907.48 178.287L908.382 177.857L908.379 177.848L908.374 177.84L907.48 178.287ZM907.16 172.347C907.16 168.668 908.35 165.832 910.672 163.728L909.328 162.246C906.53 164.782 905.16 168.187 905.16 172.347H907.16ZM910.684 163.717C912.97 161.576 916.179 160.447 920.44 160.447V158.447C915.821 158.447 912.07 159.678 909.316 162.257L910.684 163.717ZM920.44 160.447H940V158.447H920.44V160.447ZM939 159.447V169.647H941V159.447H939ZM940 168.647H921.82V170.647H940V168.647ZM921.82 168.647C919.409 168.647 917.395 169.274 915.917 170.657L917.283 172.118C918.285 171.18 919.751 170.647 921.82 170.647V168.647ZM915.917 170.657C914.443 172.036 913.74 173.877 913.74 176.067H915.74C915.74 174.337 916.277 173.059 917.283 172.118L915.917 170.657ZM913.74 176.067C913.74 178.257 914.443 180.099 915.917 181.478L917.283 180.017C916.277 179.076 915.74 177.797 915.74 176.067H913.74ZM915.917 181.478C917.395 182.86 919.409 183.487 921.82 183.487V181.487C919.751 181.487 918.285 180.954 917.283 180.017L915.917 181.478ZM921.82 183.487H940V181.487H921.82V183.487ZM939 182.487V192.747H941V182.487H939ZM940 191.747H906.52V193.747H940V191.747ZM907.52 192.747V182.487H905.52V192.747H907.52ZM906.52 183.487H910.96V181.487H906.52V183.487ZM911.535 181.669C910.207 180.736 909.154 179.474 908.382 177.857L906.578 178.718C907.486 180.621 908.753 182.159 910.385 183.305L911.535 181.669ZM908.374 177.84C907.572 176.235 907.16 174.411 907.16 172.347H905.16C905.16 174.684 905.628 176.82 906.586 178.734L908.374 177.84ZM938.98 144.498L938.064 144.096L938.064 144.096L938.98 144.498ZM934.9 149.898L935.5 150.698L935.509 150.691L934.9 149.898ZM929.02 152.118H928.02V153.194L929.094 153.115L929.02 152.118ZM929.02 141.978L928.917 140.983L928.02 141.076V141.978H929.02ZM931.84 140.358L931.04 139.758L931.04 139.758L931.84 140.358ZM932.2 133.878L933.017 133.301L933.011 133.292L932.2 133.878ZM928.12 134.298L929.022 134.73L929.029 134.715L929.035 134.7L928.12 134.298ZM926.56 139.158L925.59 138.915L925.588 138.923L925.586 138.93L926.56 139.158ZM924.82 145.158L925.748 145.529L925.753 145.519L925.756 145.509L924.82 145.158ZM921.88 149.298L922.529 150.058L922.535 150.054L922.54 150.049L921.88 149.298ZM911.2 149.478L910.641 150.306L910.645 150.31L911.2 149.478ZM907.42 144.798L906.505 145.202L906.508 145.209L907.42 144.798ZM909.16 127.518L909.916 128.173L909.921 128.166L909.16 127.518ZM917.44 123.318H918.44V122.207L917.336 122.323L917.44 123.318ZM917.44 132.798L917.577 133.788L918.44 133.669V132.798H917.44ZM914.68 134.358L915.457 134.987L915.464 134.978L915.471 134.969L914.68 134.358ZM914.38 140.478L915.204 139.911L915.192 139.894L915.18 139.878L914.38 140.478ZM918.4 139.938L919.302 140.37L919.305 140.364L919.308 140.357L918.4 139.938ZM919.84 135.138L918.872 134.888L918.867 134.904L918.864 134.921L919.84 135.138ZM921.76 129.078L922.685 129.457L922.689 129.447L922.693 129.437L921.76 129.078ZM924.76 124.998L925.398 125.768L925.41 125.758L925.422 125.747L924.76 124.998ZM930.28 123.138V122.138H930.271L930.263 122.138L930.28 123.138ZM935.56 124.818L934.977 125.63L934.981 125.633L935.56 124.818ZM939.16 129.558L938.239 129.947L938.242 129.954L939.16 129.558ZM939.48 136.698C939.48 139.503 939 141.963 938.064 144.096L939.896 144.899C940.96 142.473 941.48 139.732 941.48 136.698H939.48ZM938.064 144.096C937.122 146.245 935.859 147.901 934.291 149.104L935.509 150.691C937.381 149.254 938.838 147.31 939.896 144.899L938.064 144.096ZM934.3 149.098C932.69 150.305 930.912 150.975 928.946 151.12L929.094 153.115C931.448 152.941 933.59 152.13 935.5 150.698L934.3 149.098ZM930.02 152.118V141.978H928.02V152.118H930.02ZM929.123 142.972C930.569 142.823 931.758 142.133 932.64 140.958L931.04 139.758C930.482 140.502 929.791 140.893 928.917 140.983L929.123 142.972ZM932.64 140.958C933.511 139.797 933.92 138.397 933.92 136.818H931.92C931.92 138.039 931.609 138.998 931.04 139.758L932.64 140.958ZM933.92 136.818C933.92 135.435 933.664 134.218 933.017 133.301L931.383 134.454C931.696 134.897 931.92 135.64 931.92 136.818H933.92ZM933.011 133.292C932.327 132.345 931.38 131.798 930.22 131.798V133.798C930.66 133.798 931.033 133.97 931.389 134.463L933.011 133.292ZM930.22 131.798C929.557 131.798 928.933 131.974 928.394 132.359C927.863 132.738 927.478 133.274 927.205 133.895L929.035 134.7C929.202 134.321 929.387 134.107 929.556 133.986C929.717 133.871 929.923 133.798 930.22 133.798V131.798ZM927.218 133.865C926.692 134.961 926.153 136.664 925.59 138.915L927.53 139.4C928.087 137.171 928.588 135.634 929.022 134.73L927.218 133.865ZM925.586 138.93C925.032 141.305 924.463 143.26 923.884 144.806L925.756 145.509C926.377 143.855 926.968 141.81 927.534 139.385L925.586 138.93ZM923.892 144.786C923.311 146.237 922.424 147.488 921.22 148.546L922.54 150.049C923.976 148.787 925.049 147.278 925.748 145.529L923.892 144.786ZM921.231 148.537C920.097 149.504 918.529 150.038 916.42 150.038V152.038C918.871 152.038 920.943 151.411 922.529 150.058L921.231 148.537ZM916.42 150.038C914.692 150.038 913.146 149.573 911.755 148.646L910.645 150.31C912.374 151.462 914.308 152.038 916.42 152.038V150.038ZM911.759 148.649C910.337 147.688 909.188 146.285 908.332 144.386L906.508 145.209C907.492 147.39 908.863 149.107 910.641 150.306L911.759 148.649ZM908.335 144.393C907.483 142.468 907.04 140.152 907.04 137.418H905.04C905.04 140.363 905.517 142.967 906.505 145.202L908.335 144.393ZM907.04 137.418C907.04 133.379 908.038 130.339 909.916 128.173L908.404 126.863C906.122 129.496 905.04 133.056 905.04 137.418H907.04ZM909.921 128.166C911.821 125.938 914.337 124.648 917.544 124.312L917.336 122.323C913.663 122.707 910.659 124.217 908.399 126.869L909.921 128.166ZM916.44 123.318V132.798H918.44V123.318H916.44ZM917.303 131.807C915.899 132.001 914.738 132.647 913.889 133.746L915.471 134.969C915.982 134.308 916.661 133.915 917.577 133.788L917.303 131.807ZM913.903 133.728C913.041 134.793 912.66 136.157 912.66 137.718H914.66C914.66 136.478 914.959 135.602 915.457 134.987L913.903 133.728ZM912.66 137.718C912.66 139.031 912.92 140.197 913.58 141.078L915.18 139.878C914.88 139.478 914.66 138.804 914.66 137.718H912.66ZM913.556 141.044C914.189 141.965 915.123 142.438 916.24 142.438V140.438C915.757 140.438 915.451 140.27 915.204 139.911L913.556 141.044ZM916.24 142.438C916.904 142.438 917.527 142.261 918.07 141.884C918.606 141.512 919.006 140.986 919.302 140.37L917.498 139.505C917.314 139.89 917.114 140.113 916.93 140.241C916.753 140.364 916.536 140.438 916.24 140.438V142.438ZM919.308 140.357C919.834 139.217 920.332 137.532 920.816 135.355L918.864 134.921C918.388 137.063 917.926 138.578 917.492 139.519L919.308 140.357ZM920.808 135.387C921.442 132.931 922.069 130.959 922.685 129.457L920.835 128.698C920.171 130.316 919.518 132.384 918.872 134.888L920.808 135.387ZM922.693 129.437C923.226 128.05 924.118 126.828 925.398 125.768L924.122 124.228C922.602 125.487 921.494 126.985 920.827 128.719L922.693 129.437ZM925.422 125.747C926.558 124.745 928.147 124.175 930.297 124.137L930.263 122.138C927.773 122.181 925.682 122.851 924.098 124.248L925.422 125.747ZM930.28 124.138C932.035 124.138 933.59 124.635 934.977 125.63L936.143 124.005C934.41 122.761 932.445 122.138 930.28 122.138V124.138ZM934.981 125.633C936.32 126.585 937.416 128.002 938.239 129.947L940.081 129.168C939.144 126.953 937.84 125.211 936.139 124.002L934.981 125.633ZM938.242 129.954C939.057 131.844 939.48 134.084 939.48 136.698H941.48C941.48 133.871 941.023 131.351 940.078 129.162L938.242 129.954ZM915.04 98.0606H916.04V97.0606H915.04V98.0606ZM915.04 103.581H914.04V104.581H915.04V103.581ZM940 103.581H941V102.581H940V103.581ZM940 113.841V114.841H941V113.841H940ZM915.04 113.841V112.841H914.04V113.841H915.04ZM915.04 117.561V118.561H916.04V117.561H915.04ZM906.52 117.561H905.52V118.561H906.52V117.561ZM906.52 113.841H907.52V112.841H906.52V113.841ZM896.2 110.301L896.944 109.632L896.938 109.625L896.2 110.301ZM893.02 98.2406V97.2406H892.125L892.026 98.1301L893.02 98.2406ZM901.72 98.2406L902.718 98.3017L902.783 97.2406H901.72V98.2406ZM902.56 102.381L903.322 101.733L903.322 101.733L902.56 102.381ZM906.52 103.581V104.581H907.52V103.581H906.52ZM906.52 98.0606V97.0606H905.52V98.0606H906.52ZM914.04 98.0606V103.581H916.04V98.0606H914.04ZM915.04 104.581H940V102.581H915.04V104.581ZM939 103.581V113.841H941V103.581H939ZM940 112.841H915.04V114.841H940V112.841ZM914.04 113.841V117.561H916.04V113.841H914.04ZM915.04 116.561H906.52V118.561H915.04V116.561ZM907.52 117.561V113.841H905.52V117.561H907.52ZM906.52 112.841H905.56V114.841H906.52V112.841ZM905.56 112.841C901.634 112.841 898.821 111.722 896.944 109.632L895.456 110.969C897.819 113.599 901.246 114.841 905.56 114.841V112.841ZM896.938 109.625C895.006 107.515 893.96 104.336 893.96 99.9206H891.96C891.96 104.625 893.074 108.366 895.462 110.976L896.938 109.625ZM893.96 99.9206C893.96 99.1666 893.98 98.6529 894.014 98.351L892.026 98.1301C891.98 98.5482 891.96 99.1545 891.96 99.9206H893.96ZM893.02 99.2406H901.72V97.2406H893.02V99.2406ZM900.722 98.1795C900.598 100.197 900.855 101.919 901.798 103.028L903.322 101.733C902.905 101.242 902.602 100.204 902.718 98.3017L900.722 98.1795ZM901.798 103.028C902.765 104.165 904.359 104.581 906.22 104.581V102.581C904.561 102.581 903.715 102.196 903.322 101.733L901.798 103.028ZM906.22 104.581H906.52V102.581H906.22V104.581ZM907.52 103.581V98.0606H905.52V103.581H907.52ZM906.52 99.0606H915.04V97.0606H906.52V99.0606ZM925.72 59.8595H926.72V58.9682L925.835 58.8661L925.72 59.8595ZM925.72 83.0795H924.72V84.1593L925.797 84.0765L925.72 83.0795ZM930.52 81.0995L931.239 81.7941L931.252 81.7815L931.263 81.7684L930.52 81.0995ZM928.9 71.3795H927.9V72.0185L928.48 72.2869L928.9 71.3795ZM928.9 60.4595L929.147 59.4904L927.9 59.173V60.4595H928.9ZM934.84 63.5195L934.196 64.2849L934.207 64.2934L934.84 63.5195ZM938.98 68.9795L939.89 68.5657L938.98 68.9795ZM938.38 85.1195L939.257 85.5993L939.257 85.5993L938.38 85.1195ZM932.38 91.1195L931.895 90.2447L931.895 90.2447L932.38 91.1195ZM914.14 91.1795L913.655 92.0543L913.666 92.0599L914.14 91.1795ZM908.14 85.1795L909.017 84.6997L909.017 84.6997L908.14 85.1795ZM908.08 67.7195L908.96 68.1944L908.96 68.1944L908.08 67.7195ZM913.9 61.8395L914.386 62.7137L914.396 62.7077L913.9 61.8395ZM920.02 70.1795H921.02V69.1795H920.02V70.1795ZM915.82 71.9795L915.064 71.3245L915.064 71.3245L915.82 71.9795ZM915.76 80.8595L914.992 81.4997L914.997 81.5061L915.003 81.5124L915.76 80.8595ZM920.02 83.0195L919.87 84.0081L921.02 84.1832V83.0195H920.02ZM922.72 60.6795C923.638 60.6795 924.6 60.7369 925.605 60.8529L925.835 58.8661C924.76 58.7421 923.722 58.6795 922.72 58.6795V60.6795ZM924.72 59.8595V83.0795H926.72V59.8595H924.72ZM925.797 84.0765C928.047 83.9034 929.904 83.1768 931.239 81.7941L929.801 80.4049C928.896 81.3421 927.553 81.9355 925.643 82.0824L925.797 84.0765ZM931.263 81.7684C932.52 80.3721 933.14 78.6689 933.14 76.7195H931.14C931.14 78.2101 930.68 79.4268 929.777 80.4305L931.263 81.7684ZM933.14 76.7195C933.14 75.2984 932.839 74.0244 932.185 72.9457C931.528 71.8624 930.554 71.0432 929.32 70.472L928.48 72.2869C929.406 72.7158 930.052 73.2866 930.475 73.9832C930.901 74.6845 931.14 75.5805 931.14 76.7195H933.14ZM929.9 71.3795V60.4595H927.9V71.3795H929.9ZM928.653 61.4286C930.705 61.9509 932.55 62.9005 934.196 64.2848L935.484 62.7541C933.61 61.1785 931.495 60.088 929.147 59.4904L928.653 61.4286ZM934.207 64.2934C935.841 65.6302 937.129 67.324 938.07 69.3933L939.89 68.5657C938.831 66.2349 937.359 64.2888 935.473 62.7455L934.207 64.2934ZM938.07 69.3933C939.004 71.4479 939.48 73.7643 939.48 76.3595H941.48C941.48 73.5147 940.956 70.911 939.89 68.5657L938.07 69.3933ZM939.48 76.3595C939.48 79.4929 938.813 82.2443 937.503 84.6397L939.257 85.5993C940.747 82.8747 941.48 79.786 941.48 76.3595H939.48ZM937.503 84.6397C936.195 87.0302 934.333 88.8947 931.895 90.2447L932.864 91.9943C935.627 90.4643 937.765 88.3287 939.257 85.5993L937.503 84.6397ZM931.895 90.2447C929.467 91.5895 926.6 92.2795 923.26 92.2795V94.2795C926.88 94.2795 930.093 93.5294 932.864 91.9943L931.895 90.2447ZM923.26 92.2795C919.916 92.2795 917.044 91.6076 914.614 90.299L913.666 92.0599C916.436 93.5513 919.644 94.2795 923.26 94.2795V92.2795ZM914.624 90.3047C912.187 88.9547 910.325 87.0902 909.017 84.6997L907.263 85.6593C908.755 88.3887 910.893 90.5243 913.655 92.0543L914.624 90.3047ZM909.017 84.6997C907.708 82.306 907.04 79.5352 907.04 76.3595H905.04C905.04 79.8238 905.772 82.9329 907.263 85.6593L909.017 84.6997ZM907.04 76.3595C907.04 73.2632 907.689 70.5502 908.96 68.1944L907.2 67.2445C905.751 69.9287 905.04 72.9757 905.04 76.3595H907.04ZM908.96 68.1944C910.229 65.8436 912.031 64.0216 914.386 62.7136L913.414 60.9653C910.729 62.4574 908.651 64.5554 907.2 67.2445L908.96 68.1944ZM914.396 62.7077C916.743 61.3669 919.506 60.6795 922.72 60.6795V58.6795C919.214 58.6795 916.097 59.4321 913.404 60.9712L914.396 62.7077ZM920.02 69.1795C918.005 69.1795 916.316 69.8801 915.064 71.3245L916.576 72.6344C917.404 71.6789 918.515 71.1795 920.02 71.1795V69.1795ZM915.064 71.3245C913.846 72.7307 913.26 74.4731 913.26 76.4795H915.26C915.26 74.8858 915.714 73.6283 916.576 72.6344L915.064 71.3245ZM913.26 76.4795C913.26 78.4081 913.827 80.1014 914.992 81.4997L916.528 80.2193C915.693 79.2175 915.26 77.9908 915.26 76.4795H913.26ZM915.003 81.5124C916.19 82.8899 917.847 83.7002 919.87 84.0081L920.17 82.0309C918.513 81.7787 917.33 81.149 916.517 80.2065L915.003 81.5124ZM921.02 83.0195V70.1795H919.02V83.0195H921.02ZM912.1 42.0068V43.0068H915.464L912.646 41.1692L912.1 42.0068ZM907.78 37.5068L908.646 37.0065L908.642 36.9994L908.637 36.9923L907.78 37.5068ZM906.16 31.5068V30.5068H905.16V31.5068H906.16ZM917.02 31.5068H918.02V30.5068H917.02V31.5068ZM918.7 40.0868L919.464 39.4419L919.458 39.4351L919.453 39.4283L918.7 40.0868ZM940 42.0068H941V41.0068H940V42.0068ZM940 52.2668V53.2668H941V52.2668H940ZM906.52 52.2668H905.52V53.2668H906.52V52.2668ZM906.52 42.0068V41.0068H905.52V42.0068H906.52ZM912.646 41.1692C910.93 40.05 909.603 38.6628 908.646 37.0065L906.914 38.0071C908.037 39.9508 909.59 41.5636 911.554 42.8444L912.646 41.1692ZM908.637 36.9923C907.655 35.3554 907.16 33.5347 907.16 31.5068H905.16C905.16 33.879 905.745 36.0583 906.923 38.0213L908.637 36.9923ZM906.16 32.5068H917.02V30.5068H906.16V32.5068ZM916.02 31.5068V34.3268H918.02V31.5068H916.02ZM916.02 34.3268C916.02 37.0106 916.604 39.2102 917.947 40.7453L919.453 39.4283C918.556 38.4034 918.02 36.763 918.02 34.3268H916.02ZM917.936 40.7317C919.3 42.3483 921.592 43.0068 924.46 43.0068V41.0068C921.808 41.0068 920.26 40.3853 919.464 39.4419L917.936 40.7317ZM924.46 43.0068H940V41.0068H924.46V43.0068ZM939 42.0068V52.2668H941V42.0068H939ZM940 51.2668H906.52V53.2668H940V51.2668ZM907.52 52.2668V42.0068H905.52V52.2668H907.52ZM906.52 43.0068H912.1V41.0068H906.52V43.0068Z" fill="#D3FFF5" fill-opacity="0.5"/>
<path d="M885.067 1356.27L880.6 1351.87H874.4V1345.67L870 1341.2L874.4 1336.73V1330.53H880.6L885.067 1326.13L889.533 1330.53H895.733V1336.73L900.133 1341.2L895.733 1345.67V1351.87H889.533L885.067 1356.27ZM881.167 1346.87L885.067 1344.5L888.967 1346.87L887.933 1342.43L891.4 1339.43L886.833 1339.07L885.067 1334.87L883.3 1339.07L878.733 1339.43L882.2 1342.43L881.167 1346.87Z" fill="#D3FFF5" fill-opacity="0.5"/>
</svg>
